<?xml version="1.0" encoding="UTF-8" standalone="no"?>
<svg
   version="1.1"
   width="1006.2862"
   height="1006.2862"
   style="clip-rule:evenodd;fill-rule:evenodd;image-rendering:optimizeQuality;shape-rendering:geometricPrecision;text-rendering:geometricPrecision"
   id="svg50"
   sodipodi:docname="Ibiss2.svg"
   inkscape:version="1.3.2 (091e20e, 2023-11-25, custom)"
   xmlns:inkscape="http://www.inkscape.org/namespaces/inkscape"
   xmlns:sodipodi="http://sodipodi.sourceforge.net/DTD/sodipodi-0.dtd"
   xmlns="http://www.w3.org/2000/svg"
   xmlns:svg="http://www.w3.org/2000/svg">
  <defs
     id="defs50" />
  <sodipodi:namedview
     id="namedview50"
     pagecolor="#ffffff"
     bordercolor="#666666"
     borderopacity="1.0"
     inkscape:showpageshadow="2"
     inkscape:pageopacity="0.0"
     inkscape:pagecheckerboard="0"
     inkscape:deskcolor="#d1d1d1"
     inkscape:zoom="0.579358"
     inkscape:cx="444.45749"
     inkscape:cy="466.89612"
     inkscape:window-width="1920"
     inkscape:window-height="1017"
     inkscape:window-x="1912"
     inkscape:window-y="-8"
     inkscape:window-maximized="1"
     inkscape:current-layer="svg50" />
  <circle
     style="fill:#000000;fill-opacity:1;fill-rule:evenodd;stroke-width:0.682892;paint-order:fill markers stroke"
     id="path51"
     cx="503.1431"
     cy="503.1431"
     r="503.1431" />
  <g
     id="g2"
     transform="translate(-8.8569031,-8.8569031)">
    <path
       style="opacity:1"
       fill="#f9f8f8"
       d="m 139.5,548.5 c -0.124,5.569 0.543,10.902 2,16 4.108,27.514 10.775,54.514 20,81 0.336,3.667 -0.497,7 -2.5,10 -3.085,4.5 -5.918,9.167 -8.5,14 -0.457,0.798 -1.124,1.131 -2,1 C 97.3183,545.207 106.485,424.54 176,308.5 243.891,204.386 339.724,143.553 463.5,126 c 122.333,-11.529 228.666,23.804 319,106 98.589,99.449 136.422,218.616 113.5,357.5 -27.42,118.72 -94.254,207.553 -200.5,266.5 -96.12,50.721 -196.453,60.888 -301,30.5 15.548,-4.453 31.381,-7.453 47.5,-9 C 563.636,894.055 670.469,862.221 762.5,782 856.501,692.344 894.668,582.844 877,453.5 853.932,338.15 791.765,250.984 690.5,192 583.684,136.1 474.351,130.767 362.5,176 248.787,228.058 176.954,314.891 147,436.5 c -8.191,36.942 -10.691,74.275 -7.5,112 z"
       id="path2" />
  </g>
  <g
     id="g3"
     transform="translate(-8.8569031,-8.8569031)">
    <path
       style="opacity:1"
       fill="#fbfafa"
       d="m 717.5,596.5 c 1.3,10.345 1.133,20.678 -0.5,31 -1.466,4.732 -3.133,9.398 -5,14 -5.295,-11.262 -10.629,-22.595 -16,-34 -1.609,-2.907 -3.442,-5.573 -5.5,-8 -3.213,-6.742 -7.213,-13.076 -12,-19 -0.333,0.5 -0.667,1 -1,1.5 2.765,9.656 4.431,19.489 5,29.5 0.686,13.822 -0.314,27.488 -3,41 -3.931,10.832 -10.931,19.165 -21,25 -0.832,-9.983 -1.332,-19.983 -1.5,-30 -1.184,-9.656 -4.017,-18.656 -8.5,-27 -0.667,5.819 -1.333,11.486 -2,17 -18.394,-55.886 -56.394,-90.386 -114,-103.5 -71.851,-13.036 -137.185,1.964 -196,45 -26.541,19.54 -49.374,42.707 -68.5,69.5 -0.667,0.667 -0.667,1.333 0,2 25.788,-20.783 52.955,-39.616 81.5,-56.5 39.682,-22.045 82.182,-34.212 127.5,-36.5 31.314,-0.547 60.481,6.953 87.5,22.5 47.948,35.249 61.781,81.082 41.5,137.5 -2.712,7.755 -6.212,15.088 -10.5,22 -7.859,9.682 -17.192,17.849 -28,24.5 -7.514,4.804 -15.514,6.304 -24,4.5 19.006,-31.69 27.839,-66.023 26.5,-103 -2.079,-17.584 -8.079,-33.584 -18,-48 -1.113,-1.829 -2.613,-2.663 -4.5,-2.5 10.071,27.278 10.571,54.778 1.5,82.5 -2.962,9.725 -6.795,19.058 -11.5,28 -3.481,4.263 -6.981,8.597 -10.5,13 -10.401,11.279 -22.901,19.112 -37.5,23.5 -15.631,2.205 -23.298,-4.628 -23,-20.5 5.312,-13.969 9.478,-28.302 12.5,-43 0.889,-3.652 1.222,-7.318 1,-11 -6.844,10.362 -13.677,20.695 -20.5,31 -5.356,2.957 -11.022,5.124 -17,6.5 -10.478,1.341 -19.311,-1.825 -26.5,-9.5 -0.505,-2.018 -1.005,-4.018 -1.5,-6 9.501,-20.163 17.834,-40.83 25,-62 -0.333,-0.333 -0.667,-0.667 -1,-1 -13.565,16.799 -26.398,34.132 -38.5,52 -3.676,4.507 -7.51,8.841 -11.5,13 -11.224,-10.95 -24.557,-18.283 -40,-22 9.915,-14.082 21.082,-27.082 33.5,-39 0.688,-0.832 0.521,-1.498 -0.5,-2 -10.771,4.216 -20.771,9.716 -30,16.5 -9.148,7.647 -18.148,15.48 -27,23.5 -12.658,-7.418 -26.325,-11.918 -41,-13.5 15.523,-18.531 33.19,-34.531 53,-48 -12.79,2.386 -24.79,7.052 -36,14 -15.158,9.817 -29.158,21.151 -42,34 -9.259,-1.151 -18.592,-1.984 -28,-2.5 -9.845,-0.22 -19.345,1.446 -28.5,5 -0.5,-0.167 -1,-0.333 -1.5,-0.5 35.518,-51.185 78.185,-95.519 128,-133 39.408,-28.69 83.408,-46.357 132,-53 33.407,-4.073 66.074,-0.906 98,9.5 4.576,8.398 6.909,17.398 7,27 11.202,-1.367 17.702,-7.7 19.5,-19 0.925,-9.229 -1.409,-17.562 -7,-25 -4.423,-6.428 -9.59,-12.261 -15.5,-17.5 -13.14,-10.404 -26.807,-20.071 -41,-29 -16.278,-11.443 -29.612,-25.61 -40,-42.5 -1.333,-1.333 -2.667,-1.333 -4,0 -1.388,6.511 -0.721,12.844 2,19 -2,1.333 -4,1.333 -6,0 -17.646,-13.961 -28.646,-31.961 -33,-54 -1,0 -2,0 -3,0 -1.586,8.33 -2.253,16.663 -2,25 -2.899,-2.803 -5.566,-5.803 -8,-9 -0.296,-1.903 -0.963,-3.57 -2,-5 -1.048,-5.622 -1.881,-11.289 -2.5,-17 -2.565,6.727 -5.065,13.561 -7.5,20.5 -4.534,0.481 -7.034,-1.686 -7.5,-6.5 -2.032,-6.857 -3.198,-13.857 -3.5,-21 0.711,-10.788 1.878,-21.455 3.5,-32 -2.248,2.828 -4.248,5.828 -6,9 -1.451,1.964 -3.284,3.297 -5.5,4 -1,0 -2,0 -3,0 0,-4 0,-8 0,-12 1.859,-16.917 8.193,-31.917 19,-45 -0.333,-0.333 -0.667,-0.667 -1,-1 -4.88,2.607 -9.88,4.94 -15,7 -1.012,-2.337 -0.845,-4.67 0.5,-7 16.37,-33.69 42.87,-54.857 79.5,-63.5 46.459,-6.536 81.959,9.964 106.5,49.5 2.61,5.553 4.943,11.219 7,17 1.213,3.268 1.546,6.601 1,10 -14.596,-8.932 -29.429,-17.432 -44.5,-25.5 -27.3,-9.091 -47.467,-0.925 -60.5,24.5 -4.983,13.917 -4.316,27.583 2,41 2.919,6.177 6.586,11.844 11,17 11.333,10.667 22.667,21.333 34,32 8.146,10.113 16.646,19.947 25.5,29.5 0.832,0.688 1.498,0.521 2,-0.5 -2.857,-9.461 -3.691,-19.128 -2.5,-29 0.353,-3.039 1.52,-5.705 3.5,-8 3.638,16.104 11.972,29.271 25,39.5 19.058,12.866 39.058,24.199 60,34 8.716,5.027 16.716,11.027 24,18 -4,1 -8,2 -12,3 17.137,8.467 32.637,19.301 46.5,32.5 6.306,6.941 10.806,14.941 13.5,24 -0.333,0.333 -0.667,0.667 -1,1 -6.17,-3.919 -12.503,-7.586 -19,-11 -0.333,0.333 -0.667,0.667 -1,1 14.739,15.134 26.239,32.467 34.5,52 5.373,13.53 7.373,27.53 6,42 -0.949,2.7 -2.783,3.533 -5.5,2.5 -5.022,-11.211 -10.188,-22.378 -15.5,-33.5 -4.513,-7.024 -9.513,-13.691 -15,-20 -0.667,1 -0.667,2 0,3 7.658,14.142 12.825,29.142 15.5,45 z"
       id="path3" />
  </g>
  <g
     id="g4"
     transform="translate(-8.8569031,-8.8569031)">
    <path
       style="opacity:1"
       fill="#f9f9f8"
       d="m 311.5,253.5 c 1.64,0.82 3.307,1.653 5,2.5 16.06,20.292 20.893,43.125 14.5,68.5 -3.115,11.894 -8.115,22.894 -15,33 -10.705,13.705 -23.038,25.705 -37,36 0.282,-7.367 1.115,-14.7 2.5,-22 7.688,-17.214 14.521,-34.881 20.5,-53 5.301,-20.941 6.801,-42.107 4.5,-63.5 1.405,-1.269 3.071,-1.769 5,-1.5 z"
       id="path4" />
  </g>
  <g
     id="g5"
     transform="translate(-8.8569031,-8.8569031)">
    <path
       style="opacity:1"
       fill="#c3c3c2"
       d="m 311.5,253.5 c -1.929,-0.269 -3.595,0.231 -5,1.5 2.301,21.393 0.801,42.559 -4.5,63.5 -5.979,18.119 -12.812,35.786 -20.5,53 1.161,-7.956 1.994,-15.956 2.5,-24 0.333,-17.333 0.667,-34.667 1,-52 1.103,-11.869 4.77,-22.869 11,-33 3.201,-3.536 6.701,-6.703 10.5,-9.5 1.887,-0.78 3.554,-0.613 5,0.5 z"
       id="path5" />
  </g>
  <g
     id="g6"
     transform="translate(-8.8569031,-8.8569031)">
    <path
       style="opacity:1"
       fill="#f2f2f3"
       d="m 531.5,274.5 c 7.468,-1.182 13.468,1.152 18,7 -0.167,0.333 -0.333,0.667 -0.5,1 -7.185,-6.025 -13.185,-5.025 -18,3 -0.451,13.03 5.383,17.03 17.5,12 0.333,0.333 0.667,0.667 1,1 -5.553,7.016 -12.553,8.85 -21,5.5 -11.442,-11.28 -10.442,-21.113 3,-29.5 z"
       id="path6" />
  </g>
  <g
     id="g8"
     transform="translate(-8.8569031,-8.8569031)">
    <path
       style="opacity:1"
       fill="#f8f8f8"
       d="m 595.5,290.5 c 56.167,16.916 107.501,43.083 154,78.5 54.913,44.641 87.413,102.141 97.5,172.5 0.667,4.333 0.667,8.667 0,13 -1.303,6.401 -5.137,8.901 -11.5,7.5 -1.786,-0.785 -3.286,-1.951 -4.5,-3.5 C 819.883,471.039 776.05,405.872 699.5,363 c -40.043,-21.625 -82.376,-36.792 -127,-45.5 7.922,-8.885 15.588,-17.885 23,-27 z"
       id="path8" />
  </g>
  <g
     id="g9"
     transform="translate(-8.8569031,-8.8569031)">
    <path
       style="opacity:1"
       fill="#f9f9fa"
       d="m 256.5,437.5 c -0.667,1.667 -1.333,3.333 -2,5 -13.393,-23.465 -22.893,-48.465 -28.5,-75 -4.804,-24.08 -0.804,-46.413 12,-67 1.599,-1.536 3.433,-2.036 5.5,-1.5 3.561,2.896 6.394,6.396 8.5,10.5 10.685,22.104 14.685,45.437 12,70 -2.569,19.339 -5.069,38.672 -7.5,58 z"
       id="path9" />
  </g>
  <g
     id="g10"
     transform="translate(-8.8569031,-8.8569031)">
    <path
       style="opacity:1"
       fill="#aaaaaa"
       d="m 393.5,315.5 c 0,4 0,8 0,12 1,0 2,0 3,0 -1.068,0.934 -2.401,1.268 -4,1 -0.318,-4.532 0.015,-8.866 1,-13 z"
       id="path10" />
  </g>
  <g
     id="g11"
     transform="translate(-8.8569031,-8.8569031)">
    <path
       style="opacity:1"
       fill="#605f63"
       d="m 605.5,344.5 c -6.854,-0.324 -13.521,0.009 -20,1 -0.876,0.131 -1.543,-0.202 -2,-1 7.49,-1.319 14.823,-1.319 22,0 z"
       id="path11" />
  </g>
  <g
     id="g12"
     transform="translate(-8.8569031,-8.8569031)">
    <path
       style="opacity:1"
       fill="#eeeeef"
       d="m 585.5,345.5 c 6.479,-0.991 13.146,-1.324 20,-1 63.943,8.637 117.943,36.303 162,83 0,0.333 0,0.667 0,1 -52.358,-45.365 -113.024,-73.031 -182,-83 z"
       id="path12" />
  </g>
  <g
     id="g13"
     transform="translate(-8.8569031,-8.8569031)">
    <path
       style="opacity:1"
       fill="#f8f8f9"
       d="m 348.5,365.5 c 13.694,-2.008 17.527,3.325 11.5,16 -8.145,17.424 -19.978,31.924 -35.5,43.5 -19.734,13.732 -38.901,28.232 -57.5,43.5 7.588,-36.355 25.755,-66.189 54.5,-89.5 8.534,-5.601 17.534,-10.101 27,-13.5 z"
       id="path13" />
  </g>
  <g
     id="g14"
     transform="translate(-8.8569031,-8.8569031)">
    <path
       style="opacity:1"
       fill="#626262"
       d="m 425.5,370.5 c 1.037,1.43 1.704,3.097 2,5 0,0.667 0,1.333 0,2 -1.424,-2.015 -2.09,-4.348 -2,-7 z"
       id="path14" />
  </g>
  <g
     id="g15"
     transform="translate(-8.8569031,-8.8569031)">
    <path
       style="opacity:1"
       fill="#c4c4c3"
       d="m 558.5,500.5 c -4.5,-13.333 -11.333,-25.333 -20.5,-36 -1.298,6.105 -4.798,7.605 -10.5,4.5 -6.428,-4.423 -12.261,-9.59 -17.5,-15.5 -7.573,-8.816 -14.906,-17.816 -22,-27 -0.195,6.064 -0.861,12.064 -2,18 -0.739,1.074 -1.739,1.741 -3,2 -4.576,-3.14 -8.242,-7.14 -11,-12 -4.531,-8.396 -8.531,-17.063 -12,-26 0.15,16.057 -4.85,18.057 -15,6 -8.515,-11.032 -14.348,-23.365 -17.5,-37 0,-0.667 0,-1.333 0,-2 2.434,3.197 5.101,6.197 8,9 -0.253,-8.337 0.414,-16.67 2,-25 1,0 2,0 3,0 4.354,22.039 15.354,40.039 33,54 2,1.333 4,1.333 6,0 -2.721,-6.156 -3.388,-12.489 -2,-19 1.333,-1.333 2.667,-1.333 4,0 10.388,16.89 23.722,31.057 40,42.5 14.193,8.929 27.86,18.596 41,29 5.91,5.239 11.077,11.072 15.5,17.5 5.591,7.438 7.925,15.771 7,25 -1.798,11.3 -8.298,17.633 -19.5,19 -0.091,-9.602 -2.424,-18.602 -7,-27 z"
       id="path15" />
  </g>
  <g
     id="g16"
     transform="translate(-8.8569031,-8.8569031)">
    <path
       style="opacity:1"
       fill="#fafafa"
       d="m 248.5,481.5 c -3.781,19.066 -4.781,38.233 -3,57.5 -0.544,0.717 -1.211,1.217 -2,1.5 -28.899,-25.116 -48.733,-56.116 -59.5,-93 -3.199,-14.512 -4.199,-29.179 -3,-44 0.273,-1.829 1.107,-3.329 2.5,-4.5 3.094,-0.652 6.094,-0.318 9,1 29.179,19.83 47.845,46.997 56,81.5 z"
       id="path16" />
  </g>
  <g
     id="g17"
     transform="translate(-8.8569031,-8.8569031)">
    <path
       style="opacity:1"
       fill="#5e5e5e"
       d="m 767.5,427.5 c 2.257,1.062 3.423,2.728 3.5,5 -1.376,-1.205 -2.542,-2.538 -3.5,-4 0,-0.333 0,-0.667 0,-1 z"
       id="path17" />
  </g>
  <g
     id="g18"
     transform="translate(-8.8569031,-8.8569031)">
    <path
       style="opacity:1"
       fill="#838383"
       d="m 256.5,437.5 c 0.163,2.357 -0.003,4.69 -0.5,7 -0.717,-0.544 -1.217,-1.211 -1.5,-2 0.667,-1.667 1.333,-3.333 2,-5 z"
       id="path18" />
  </g>
  <g
     id="g19"
     transform="translate(-8.8569031,-8.8569031)">
    <path
       style="opacity:1"
       fill="#f8f8f8"
       d="m 338.5,442.5 c 3.682,-0.165 7.348,10e-4 11,0.5 2.165,1.161 3.165,2.994 3,5.5 -3.862,13.725 -10.362,26.058 -19.5,37 -18.579,17.58 -36.746,35.414 -54.5,53.5 -3.13,-32.813 8.203,-60.479 34,-83 8.036,-5.851 16.703,-10.351 26,-13.5 z"
       id="path19" />
  </g>
  <g
     id="g20"
     transform="translate(-8.8569031,-8.8569031)">
    <path
       style="opacity:1"
       fill="#c1c1c1"
       d="m 248.5,481.5 c 1.803,5.142 3.303,10.475 4.5,16 3.215,19.265 5.548,38.599 7,58 -5.695,-4.866 -11.195,-9.866 -16.5,-15 0.789,-0.283 1.456,-0.783 2,-1.5 -1.781,-19.267 -0.781,-38.434 3,-57.5 z"
       id="path20" />
  </g>
  <g
     id="g21"
     transform="translate(-8.8569031,-8.8569031)">
    <path
       style="opacity:1"
       fill="#fafafa"
       d="m 233.5,566.5 c -4.186,15.188 -13.853,25.188 -29,30 -19.287,-18.553 -32.454,-40.886 -39.5,-67 -2.216,-6.54 -0.049,-10.54 6.5,-12 9.586,1.458 18.586,4.624 27,9.5 15.382,9.882 27.049,23.049 35,39.5 z"
       id="path21" />
  </g>
  <g
     id="g22"
     transform="translate(-8.8569031,-8.8569031)">
    <path
       style="opacity:1"
       fill="#b5b5b5"
       d="m 139.5,548.5 c 1.306,5.116 1.973,10.449 2,16 -1.457,-5.098 -2.124,-10.431 -2,-16 z"
       id="path22" />
  </g>
  <g
     id="g23"
     transform="translate(-8.8569031,-8.8569031)">
    <path
       style="opacity:1"
       fill="#c4c5c4"
       d="m 233.5,566.5 c 4.172,5.979 7.506,12.479 10,19.5 -7.845,8.677 -15.845,17.177 -24,25.5 -6.021,-4.021 -11.021,-9.021 -15,-15 15.147,-4.812 24.814,-14.812 29,-30 z"
       id="path23" />
  </g>
  <g
     id="g24"
     transform="translate(-8.8569031,-8.8569031)">
    <path
       style="opacity:1"
       fill="#c5c5c4"
       d="m 679.5,652.5 c 1.844,1.779 2.51,4.112 2,7 -2.202,27.378 -11.369,52.045 -27.5,74 -4.816,5.956 -10.649,9.623 -17.5,11 14.392,-34.651 17.726,-70.317 10,-107 0.667,-5.514 1.333,-11.181 2,-17 4.483,8.344 7.316,17.344 8.5,27 0.168,10.017 0.668,20.017 1.5,30 10.069,-5.835 17.069,-14.168 21,-25 z"
       id="path24" />
  </g>
  <g
     id="g25"
     transform="translate(-8.8569031,-8.8569031)">
    <path
       style="opacity:1"
       fill="#f5f4f5"
       d="m 809.5,641.5 c 8.425,-0.286 16.759,0.38 25,2 -1.279,3.802 -3.612,6.969 -7,9.5 -5.274,3.47 -10.94,6.136 -17,8 -10.99,1.088 -21.99,2.088 -33,3 -2.649,0.452 -5.149,1.286 -7.5,2.5 -0.667,-0.667 -0.667,-1.333 0,-2 10.477,-12.482 23.644,-20.149 39.5,-23 z"
       id="path25" />
  </g>
  <g
     id="g26"
     transform="translate(-8.8569031,-8.8569031)">
    <path
       style="opacity:1"
       fill="#c5c4c3"
       d="m 717.5,596.5 c 5.188,21.971 6.355,44.305 3.5,67 -2.912,12.821 -8.246,24.488 -16,35 -2.925,2.214 -5.759,4.547 -8.5,7 -0.333,-0.5 -0.667,-1 -1,-1.5 6.056,-27.393 6.556,-54.893 1.5,-82.5 -2.275,-7.322 -4.441,-14.655 -6.5,-22 2.058,2.427 3.891,5.093 5.5,8 5.371,11.405 10.705,22.738 16,34 1.867,-4.602 3.534,-9.268 5,-14 1.633,-10.322 1.8,-20.655 0.5,-31 z"
       id="path26" />
  </g>
  <g
     id="g27"
     transform="translate(-8.8569031,-8.8569031)">
    <path
       style="opacity:1"
       fill="#9c9c9d"
       d="m 682.5,611.5 c 0.666,5.824 1,11.824 1,18 0.111,10.205 -0.555,20.205 -2,30 0.51,-2.888 -0.156,-5.221 -2,-7 2.686,-13.512 3.686,-27.178 3,-41 z"
       id="path27" />
  </g>
  <g
     id="g28"
     transform="translate(-8.8569031,-8.8569031)">
    <path
       style="opacity:1"
       fill="#c6c7c6"
       d="m 161.5,645.5 c 2.683,5.709 4.516,11.709 5.5,18 -4.692,5.859 -9.192,11.859 -13.5,18 -1.948,-3.561 -3.614,-7.227 -5,-11 0.876,0.131 1.543,-0.202 2,-1 2.582,-4.833 5.415,-9.5 8.5,-14 2.003,-3 2.836,-6.333 2.5,-10 z"
       id="path28" />
  </g>
  <g
     id="g29"
     transform="translate(-8.8569031,-8.8569031)">
    <path
       style="opacity:1"
       fill="#f4f5f5"
       d="m 780.5,689.5 c 9.1,-0.381 18.1,0.285 27,2 -4.016,8.5 -10.683,14 -20,16.5 -11.857,2.716 -23.857,4.716 -36,6 -4.607,0.734 -8.941,2.234 -13,4.5 -1.021,-0.502 -1.188,-1.168 -0.5,-2 11.086,-13.954 25.253,-22.954 42.5,-27 z"
       id="path29" />
  </g>
  <g
     id="g30"
     transform="translate(-8.8569031,-8.8569031)">
    <path
       style="opacity:1"
       fill="#939395"
       d="m 233.5,692.5 c -2.235,-0.295 -4.235,0.039 -6,1 -0.543,-0.06 -0.876,-0.393 -1,-1 2.473,-1.297 4.807,-1.297 7,0 z"
       id="path30" />
  </g>
  <g
     id="g31"
     transform="translate(-8.8569031,-8.8569031)">
    <path
       style="opacity:1"
       fill="#f6f6f6"
       d="m 227.5,693.5 c 1.765,-0.961 3.765,-1.295 6,-1 11.834,1.334 22.834,5.167 33,11.5 13.755,8.966 24.922,20.466 33.5,34.5 6.699,17.506 11.366,35.506 14,54 -8.667,-7.333 -16.667,-15.333 -24,-24 -10.667,-16.667 -21.333,-33.333 -32,-50 -8.538,-10.376 -18.705,-18.709 -30.5,-25 z"
       id="path31" />
  </g>
  <g
     id="g32"
     transform="translate(-8.8569031,-8.8569031)">
    <path
       style="opacity:1"
       fill="#f8f7f7"
       d="m 358.5,786.5 c -0.221,2.597 -0.721,2.597 -1.5,0 -0.718,0.951 -1.551,1.117 -2.5,0.5 -12.441,-11.934 -22.775,-25.434 -31,-40.5 -0.457,-0.798 -1.124,-1.131 -2,-1 -7.582,-20.751 -20.582,-37.251 -39,-49.5 14.804,0.826 27.804,6.16 39,16 21.766,20.033 34.1,44.866 37,74.5 z"
       id="path32" />
  </g>
  <g
     id="g33"
     transform="translate(-8.8569031,-8.8569031)">
    <path
       style="opacity:1"
       fill="#f9f9f8"
       d="m 254.5,747.5 c 0.065,0.438 -0.101,0.772 -0.5,1 -17.794,-4.32 -34.961,-10.32 -51.5,-18 -8.596,-4.095 -15.096,-10.429 -19.5,-19 -2.616,-9.796 1.05,-14.13 11,-13 8.839,0.252 17.005,2.752 24.5,7.5 15.395,10.895 27.395,24.728 36,41.5 z"
       id="path33" />
  </g>
  <g
     id="g34"
     transform="translate(-8.8569031,-8.8569031)">
    <path
       style="opacity:1"
       fill="#f8f7f8"
       d="m 409.5,800.5 c 0.131,0.739 -0.036,1.406 -0.5,2 -6.439,-5.527 -12.439,-11.527 -18,-18 -7.754,-10.904 -15.254,-21.904 -22.5,-33 -6.092,-16.535 -15.425,-30.869 -28,-43 7.613,0.928 14.947,3.428 22,7.5 20.49,15.509 34.323,35.675 41.5,60.5 2.147,7.939 3.981,15.939 5.5,24 z"
       id="path34" />
  </g>
  <g
     id="g35"
     transform="translate(-8.8569031,-8.8569031)">
    <path
       style="opacity:1"
       fill="#f5f6f6"
       d="m 178.5,715.5 c -0.774,8.286 -1.274,16.62 -1.5,25 -10.753,10.545 -19.253,22.545 -25.5,36 -4.664,3.831 -8.83,8.164 -12.5,13 3.231,-19.154 9.897,-37.154 20,-54 4.416,-7.833 9.082,-15.5 14,-23 0.718,-0.951 1.551,-1.117 2.5,-0.5 1.136,1.145 2.136,2.312 3,3.5 z"
       id="path35" />
  </g>
  <g
     id="g36"
     transform="translate(-8.8569031,-8.8569031)">
    <path
       style="opacity:1"
       fill="#c4c5c3"
       d="m 414.5,709.5 c 0.495,1.982 0.995,3.982 1.5,6 7.189,7.675 16.022,10.841 26.5,9.5 5.978,-1.376 11.644,-3.543 17,-6.5 -5.232,8.897 -11.232,17.23 -18,25 -10.653,-7.075 -22.153,-12.409 -34.5,-16 -0.667,-1 -0.667,-2 0,-3 2.546,-5.092 5.046,-10.092 7.5,-15 z"
       id="path36" />
  </g>
  <g
     id="g37"
     transform="translate(-8.8569031,-8.8569031)">
    <path
       style="opacity:1"
       fill="#c4c5c4"
       d="m 178.5,715.5 c 1.315,0.976 2.648,1.976 4,3 0.219,12.665 4.553,23.665 13,33 -15.93,6.293 -30.597,14.626 -44,25 6.247,-13.455 14.747,-25.455 25.5,-36 0.226,-8.38 0.726,-16.714 1.5,-25 z"
       id="path37" />
  </g>
  <g
     id="g38"
     transform="translate(-8.8569031,-8.8569031)">
    <path
       style="opacity:1"
       fill="#f6f6f6"
       d="m 745.5,746.5 c 22.82,-4.108 25.487,0.726 8,14.5 -4.135,2.478 -8.468,4.478 -13,6 -12.437,3.016 -24.77,6.016 -37,9 9.717,-16.018 23.717,-25.851 42,-29.5 z"
       id="path38" />
  </g>
  <g
     id="g39"
     transform="translate(-8.8569031,-8.8569031)">
    <path
       style="opacity:1"
       fill="#bfc0bf"
       d="m 202.5,730.5 c 16.539,7.68 33.706,13.68 51.5,18 0.399,-0.228 0.565,-0.562 0.5,-1 4.001,5.357 7.667,11.024 11,17 -20.305,-5.964 -39.305,-15.13 -57,-27.5 -2.206,-2.037 -4.206,-4.203 -6,-6.5 z"
       id="path39" />
  </g>
  <g
     id="g40"
     transform="translate(-8.8569031,-8.8569031)">
    <path
       style="opacity:1"
       fill="#f6f6f6"
       d="m 406.5,749.5 c 28.687,9.512 49.854,27.846 63.5,55 3,7 6,14 9,21 0.667,1 0.667,2 0,3 -17.698,-17.366 -35.698,-34.366 -54,-51 -6.808,-8.962 -12.974,-18.295 -18.5,-28 z"
       id="path40" />
  </g>
  <g
     id="g41"
     transform="translate(-8.8569031,-8.8569031)">
    <path
       style="opacity:1"
       fill="#c4c4c3"
       d="m 537.5,725.5 c -11.983,26.25 -29.483,48.25 -52.5,66 -6.171,-12.693 -14.504,-23.693 -25,-33 -0.667,-1.333 -0.667,-2.667 0,-4 2.176,-4.353 4.343,-8.686 6.5,-13 -0.298,15.872 7.369,22.705 23,20.5 14.599,-4.388 27.099,-12.221 37.5,-23.5 3.519,-4.403 7.019,-8.737 10.5,-13 z"
       id="path41" />
  </g>
  <g
     id="g42"
     transform="translate(-8.8569031,-8.8569031)">
    <path
       style="opacity:1"
       fill="#c4c4c4"
       d="m 595.5,739.5 c -6.334,14.164 -14.5,27.164 -24.5,39 -18.179,20.311 -39.013,37.144 -62.5,50.5 -1,0.667 -2,0.667 -3,0 -1.333,-1.667 -2.667,-3.333 -4,-5 16.137,-16.958 30.137,-35.458 42,-55.5 8.486,1.804 16.486,0.304 24,-4.5 10.808,-6.651 20.141,-14.818 28,-24.5 z"
       id="path42" />
  </g>
  <g
     id="g43"
     transform="translate(-8.8569031,-8.8569031)">
    <path
       style="opacity:1"
       fill="#f9f8f8"
       d="m 292.5,790.5 c -4.333,0.667 -8.667,1.333 -13,2 -32.383,1.11 -63.716,7.277 -94,18.5 -10.149,4.485 -20.483,8.485 -31,12 -10.212,1.091 -12.378,-2.743 -6.5,-11.5 25.028,-33.793 58.195,-45.626 99.5,-35.5 15.284,3.928 30.284,8.761 45,14.5 z"
       id="path43" />
  </g>
  <g
     id="g44"
     transform="translate(-8.8569031,-8.8569031)">
    <path
       style="opacity:1"
       fill="#c3c3c2"
       d="m 321.5,745.5 c 0.876,-0.131 1.543,0.202 2,1 8.225,15.066 18.559,28.566 31,40.5 0.949,0.617 1.782,0.451 2.5,-0.5 0.779,2.597 1.279,2.597 1.5,0 2.468,6.57 4.634,13.237 6.5,20 -22.346,-14.675 -36.846,-35.008 -43.5,-61 z"
       id="path44" />
  </g>
  <g
     id="g45"
     transform="translate(-8.8569031,-8.8569031)">
    <path
       style="opacity:1"
       fill="#aeaeae"
       d="m 292.5,790.5 c 0.789,0.283 1.456,0.783 2,1.5 -4.989,0.499 -9.989,0.666 -15,0.5 4.333,-0.667 8.667,-1.333 13,-2 z"
       id="path45" />
  </g>
  <g
     id="g46"
     transform="translate(-8.8569031,-8.8569031)">
    <path
       style="opacity:1"
       fill="#c2c2c1"
       d="m 368.5,751.5 c 7.246,11.096 14.746,22.096 22.5,33 5.561,6.473 11.561,12.473 18,18 0.464,-0.594 0.631,-1.261 0.5,-2 2.933,5.301 4.767,10.967 5.5,17 -24.087,-15.802 -39.587,-37.802 -46.5,-66 z"
       id="path46" />
  </g>
  <g
     id="g47"
     transform="translate(-8.8569031,-8.8569031)">
    <path
       style="opacity:1"
       fill="#c4c5c5"
       d="m 707.5,777.5 c 4.333,0 8.667,0 13,0 -0.425,4.107 -1.925,7.774 -4.5,11 -9.021,10.015 -19.521,18.182 -31.5,24.5 -9.456,5.414 -19.122,9.58 -29,12.5 10.071,-24.079 27.405,-40.079 52,-48 z"
       id="path47" />
  </g>
  <g
     id="g48"
     transform="translate(-8.8569031,-8.8569031)">
    <path
       style="opacity:1"
       fill="#f9f9f9"
       d="m 279.5,808.5 c 29.21,-1.415 57.877,1.752 86,9.5 -35.812,2.96 -70.145,11.627 -103,26 -23.544,11.938 -47.21,23.605 -71,35 -5.162,2.129 -10.495,2.796 -16,2 -3.482,-4.031 -3.982,-8.531 -1.5,-13.5 15.896,-26.868 39.063,-44.368 69.5,-52.5 12.018,-2.828 24.018,-4.995 36,-6.5 z"
       id="path48" />
  </g>
  <g
     id="g49"
     transform="translate(-8.8569031,-8.8569031)">
    <path
       style="opacity:1"
       fill="#f6f6f6"
       d="m 485.5,848.5 c -0.291,1.149 -1.124,1.816 -2.5,2 -17.111,-1.974 -34.278,-2.474 -51.5,-1.5 -18.754,1.25 -37.421,3.083 -56,5.5 -20.343,-1.153 -40.676,-1.319 -61,-0.5 35.029,-16.913 72.029,-23.247 111,-19 20.638,1.76 40.638,6.26 60,13.5 z"
       id="path49" />
  </g>
  <g
     id="g50"
     transform="translate(-8.8569031,-8.8569031)">
    <path
       style="opacity:1"
       fill="#c1c3c2"
       d="m 485.5,848.5 c 8.789,3.229 17.455,6.729 26,10.5 -2.667,0.167 -5.333,0.333 -8,0.5 -24.969,-2.857 -49.969,-3.357 -75,-1.5 -6.194,1.003 -12.361,2.17 -18.5,3.5 -11.53,-2.854 -23.03,-5.187 -34.5,-7 18.579,-2.417 37.246,-4.25 56,-5.5 17.222,-0.974 34.389,-0.474 51.5,1.5 1.376,-0.184 2.209,-0.851 2.5,-2 z"
       id="path50" />
  </g>
</svg>
