<?xml version="1.0" encoding="UTF-8" standalone="no"?>
<svg
   width="900pt"
   height="900pt"
   version="1.0"
   viewBox="0 0 900 900"
   id="svg51"
   sodipodi:docname="aviancss.svg"
   inkscape:version="1.3.2 (091e20e, 2023-11-25, custom)"
   xmlns:inkscape="http://www.inkscape.org/namespaces/inkscape"
   xmlns:sodipodi="http://sodipodi.sourceforge.net/DTD/sodipodi-0.dtd"
   xmlns="http://www.w3.org/2000/svg"
   xmlns:svg="http://www.w3.org/2000/svg">
  <defs
     id="defs51" />
  <sodipodi:namedview
     id="namedview51"
     pagecolor="#ffffff"
     bordercolor="#666666"
     borderopacity="1.0"
     inkscape:showpageshadow="2"
     inkscape:pageopacity="0.0"
     inkscape:pagecheckerboard="0"
     inkscape:deskcolor="#d1d1d1"
     inkscape:document-units="pt"
     inkscape:zoom="3.9550839"
     inkscape:cx="199.11082"
     inkscape:cy="69.151503"
     inkscape:window-width="1920"
     inkscape:window-height="1017"
     inkscape:window-x="1912"
     inkscape:window-y="-8"
     inkscape:window-maximized="1"
     inkscape:current-layer="g51" />
  <g
     transform="translate(0 900) scale(.1 -.1)"
     id="g51">
    <path
       style="fill:#ffffff;fill-rule:evenodd;stroke:none;stroke-width:0.810864;paint-order:fill markers stroke"
       d="m 564.24315,1143.6743 c -63.75966,-27.5967 -99.43182,-46.6506 -143.02742,-76.3965 -43.77637,-29.8691 -63.94246,-46.6116 -104.24865,-86.55014 C 281.9176,945.99787 269.1226,931.58795 247.50905,902.50298 166.87636,793.99699 129.48112,698.0397 112.06373,554.94636 c -2.92129,-24.00002 -3.08411,-32.97368 -3.95768,-218.1168 -0.50107,-106.19786 -0.89404,-193.11378 -0.87327,-193.1465 0.0208,-0.0327 2.75523,-1.79994 6.07656,-3.92715 6.26359,-4.01165 11.16521,-11.28937 9.87246,-14.65822 -0.51759,-1.34883 -2.25746,-1.69291 -5.7195,-1.1311 -4.10578,0.66628 -5.64912,0.13394 -8.82811,-3.04504 -3.40778,-3.40779 -3.7736,-4.67338 -3.16915,-10.96402 1.6862,-17.548638 22.67029,-22.935841 31.96814,-8.20711 1.96403,3.11124 4.54167,6.02928 5.72808,6.48455 2.96215,1.13668 8.73508,-4.57357 12.90429,-12.764171 l 3.4582,-6.793803 87.58021,-0.171265 c 48.1691,-0.09419 135.53013,-0.616459 194.13561,-1.160586 104.03408,-0.965913 106.75014,-1.061609 114.78475,-4.044329 13.88245,-5.153637 27.42466,-12.990761 33.96792,-19.657851 l 6.23703,-6.355067 7.63145,7.217519 c 8.32377,7.872267 22.20123,14.981197 38.33237,19.636297 9.73619,2.809657 15.03405,2.913058 192.37187,3.754613 100.29797,0.475964 185.80304,1.264285 190.01134,1.751826 7.342,0.850598 7.7554,1.129255 10.2256,6.892074 2.6018,6.069713 8.7788,12.160603 12.3325,12.160603 1.0633,0 2.8536,-2.20262 3.9784,-4.89471 3.9506,-9.454929 16.2397,-13.448007 24.824,-8.065946 5.6275,3.528287 10.3438,10.849806 10.3511,16.069036 0,2.10294 -1.661,5.80377 -3.6975,8.22408 -3.1043,3.6892 -4.7227,4.40056 -10.0119,4.40056 -4.0967,0 -6.3073,0.62696 -6.3038,1.78784 0.011,3.62439 5.8922,11.28518 10.9589,14.2746 l 5.2171,3.07821 -0.8799,186.7348 -0.8799,186.7348 -3.6737,32.18117 c -11.3006,98.99139 -29.3564,164.41615 -67.4977,244.57688 -19.67374,41.34798 -59.01044,102.219 -88.26932,136.59118 -36.74292,43.16415 -85.74439,90.15077 -121.0118,116.03617 -32.32943,23.729 -83.07626,54.892 -117.70139,72.2791 -18.28763,9.1831 -84.48714,38.4622 -86.66197,38.3293 -0.48454,-0.03 -14.71888,-6.0432 -31.63187,-13.3636 z m 30.03575,-0.6661 c 0,-4.9309 -7.55144,-11.8413 -15.03193,-13.756 l -7.13732,-1.8268 5.36353,-2.2571 c 4.56429,-1.9208 5.36353,-2.92 5.36353,-6.7054 0,-2.6012 0.59386,-4.0811 1.43027,-3.5642 0.78666,0.4862 1.43028,2.7863 1.43028,5.1114 0,2.8133 1.62601,6.0017 4.86097,9.5316 4.68319,5.1103 5.00384,5.2278 8.76745,3.2136 3.91908,-2.0975 6.37393,-6.3878 8.98973,-15.7112 l 1.40448,-5.006 0.14601,5.4366 c 0.1306,4.8624 0.71239,5.6815 5.50955,7.7571 l 5.36352,2.3207 -6.33662,1.1515 c -8.07399,1.4672 -15.83262,8.5542 -15.83262,14.462 0,5.0233 -0.76866,5.2085 26.46007,-6.3736 28.75788,-12.2325 76.84212,-36.1643 100.11919,-49.8299 79.99091,-46.9614 157.52388,-115.75968 209.49052,-185.88979 33.83541,-45.66166 61.96993,-94.43175 83.74739,-145.17283 29.4352,-68.58353 46.703,-146.86534 53.536,-242.69948 0.9195,-12.89521 1.4978,-87.76417 1.4978,-193.88732 V 146.43274 l -7.0593,-7.78133 -7.0592,-7.78133 -5.8407,6.28953 c -3.2124,3.45924 -6.1586,5.97165 -6.5471,5.58313 -0.3885,-0.38851 0.2675,-3.03722 1.4578,-5.88602 1.1903,-2.84879 2.1642,-7.42381 2.1642,-10.16671 0,-4.63808 -0.3754,-5.05451 -5.3636,-5.95044 -6.8484,-1.23005 -10.9946,-3.35054 -6.6746,-3.4136 4.6738,-0.0682 5.0933,-1.61478 1.2567,-4.63265 -1.9432,-1.52852 -5.4922,-5.62663 -7.8867,-9.1069 l -4.3537,-6.327779 H 596.19094 164.86733 l -4.95991,5.363529 c -2.72795,2.94994 -6.28889,7.20552 -7.91321,9.45685 l -2.95331,4.09332 4.85977,-1.0156 c 2.67287,-0.55858 6.28527,-1.91786 8.02755,-3.02062 4.41902,-2.79695 5.58938,-2.49929 2.70496,0.68797 -2.72093,3.00659 -11.64044,6.58704 -19.89309,7.98545 -2.99129,0.50687 -5.81938,1.91362 -6.28465,3.1261 -0.46528,1.21249 0.60892,5.71467 2.38711,10.00486 1.77818,4.29019 2.90092,8.13248 2.49497,8.53843 -0.40594,0.40594 -2.84128,-1.87907 -5.41186,-5.07781 -2.57058,-3.19875 -5.46692,-5.8159 -6.4363,-5.8159 -0.96938,0 -5.04522,3.5918 -9.0574,7.98177 l -7.29489,7.98177 0.0655,152.56651 c 0.0875,203.81349 1.49428,240.29732 11.59088,300.59987 17.73111,105.90011 50.57204,187.85528 109.6166,273.55027 41.253,59.873 99.52407,120.50337 158.37601,164.78839 50.80233,38.2278 104.16834,68.6529 168.74196,96.2032 29.65214,12.6511 30.75089,12.9281 30.75089,7.7512 z M 1063.373,118.77966 c 0.8223,-1.53651 1.3277,-4.87738 1.123,-7.42416 -0.2969,-3.69471 0.3473,-4.99775 3.1876,-6.4477 4.8393,-2.47054 6.8087,-0.20087 3.8043,4.38441 -2.9679,4.52965 -3.0004,7.4377 -0.096,8.55238 3.6475,1.39966 5.9659,1.01724 8.3625,-1.37941 3.7838,-3.78376 2.7222,-9.12438 -2.8602,-14.38927 -5.9447,-5.606578 -11.3076,-6.227164 -16.7588,-1.93929 -4.8057,3.7802 -6.0301,9.78991 -3.3173,16.28256 2.4175,5.78579 4.3491,6.48141 6.5545,2.36048 z m -942.62793,-1.39702 c 1.73199,-1.09622 1.67915,-1.82531 -0.35757,-4.93374 -3.43152,-5.23717 -3.10136,-8.33889 0.82823,-7.7808 2.65981,0.37776 3.34219,1.57145 3.93326,6.88049 0.52342,4.70147 1.40454,6.55439 3.28682,6.91191 7.74027,1.47019 9.33781,-10.46217 2.28301,-17.05233 -5.34338,-4.991471 -8.31337,-5.177498 -14.87023,-0.93141 -5.55773,3.59907 -7.7656,10.21226 -5.08295,15.22484 1.6741,3.12808 6.42795,3.92887 9.97943,1.68104 z M 613.99854,87.498275 c 3.37261,-0.531679 6.20481,-1.610313 6.29376,-2.396964 0.089,-0.786651 -2.65256,-2.927913 -6.09224,-4.758362 -3.43969,-1.830447 -8.72078,-5.142187 -11.73575,-7.359421 l -5.48177,-4.031334 -6.8994,4.498873 c -3.79468,2.47438 -10.1956,6.26865 -14.22429,8.431711 -4.02869,2.163059 -7.32488,4.576647 -7.32488,5.363528 0,1.617913 35.55015,1.814936 45.46457,0.251969 z"
       id="path52"
       transform="matrix(7.5,0,0,-7.5,0,9000)" />
    <path
       transform="matrix(9.9999998 0 0 -9.9999998 0 9e3)"
       d="m122.53492 73.948487c0 0.7-1.8 3.3-4 5.7s-4 4.7-4 5.1-0.6 0.9-1.2 1.2c-0.7 0.2-0.4 0.2 0.7 0 1.1-0.3 3.2-0.7 4.7-1s3.3-1.1 3.9-1.9c1.3-1.6 2.9-1.8 2.9-0.4 0 1.7-3.9 5-5.8 5-1 0-2.3 0.5-2.9 1.1s-3.5 1.4-6.4 1.7c-4.8 0.6-5.4 1-5.7 3.2-0.1 1.4 1.1 5.1 2.7 8.299993 1.5 3.1 2.5 5.9 2.2 6.2-0.9 0.5-5.6-3.8-7.70001-7-0.9-1.399996-2.099997-2.499993-2.799997-2.499993-0.6 0-3.5 2.699993-6.3 5.899993l-5.3 5.9v127.9c0 127.3 0.4 146.4 3.6 172.4 0.8 6.3 1.4 13.3 1.4 15.5 0 2.1 0.6 7.5 1.4 11.9s2.2 12.5 3.1 18c2.1 12.6 3.899997 20.9 8.500007 40 0.7 2.7 1.6 6.6 2.1 8.5 0.4 1.9 1.7 6.6 2.9 10.5 1.2 3.8 2.5 8.3 3 10 1.1 4 4.1 12.4 7.6 21.7 0.9 2.4 2.2 5.9 2.9 7.8 5.4 14.7 15.4 36.1 24.1 51.5 1.8 3.3 3.6 6.7 4 7.5 1.8 3.5 15.9 26.6 20.2 32.8 2.5 3.7 6.6 9.6 9 13.2 6.8 9.8 16.6 22.5 27.8 36 23.1 27.6 57.4 60.3 85.9 81.6 11.4 8.5 24.8 18.1 30 21.4 1.3 0.8 5.6 3.5 9.5 6s8.3 5.3 9.8 6.2c1.5 1 3.6 2.2 4.7 2.8 1.1 0.5 4.7 2.5 8 4.4 19 11 47.6 24.9 70 34.1 5 2 9.9 4.1 10.9 4.7 3.3 1.8 7.5 2.7 8.1 1.8 0.9-1.5-2.3-6.7-5.7-9.4-1.9-1.4-5-2.6-7.3-2.8-4.7-0.4-4.9-2-0.4-3 3.8-0.7 4.9-2.2 4.9-6.6 0-5.5 2.5-3.3 2.8 2.5 0.3 4.5 0.7 5.4 4 8l3.8 3 3.4-2.8c2.9-2.5 3.5-3.7 4-8.1 0.6-6.3 3-7.9 3-1.9 0 4.3 0.7 5.1 5.2 6 4.6 1 3.7 2.6-1.7 3.1-3.9 0.4-5.9 1.3-8.8 3.9-3.5 3.2-4.9 7.3-2.9 8.5 0.5 0.3 2.6-0.3 4.8-1.3 2.1-1 6.4-2.9 9.4-4.1 4.9-2 8.5-3.5 19.5-8.4 13.8-6.2 34-16.1 43-21.2 3.3-1.8 6.7-3.7 7.5-4.1 1.2-0.5 14-8.2 24.9-14.8 6.2-3.8 34.5-23.4 38.7-26.8 2.8-2.3 10-8.1 16.1-12.9 21.4-16.9 53.5-48.8 73.9-73.4 12.3-14.8 36.6-49.4 44.6-63.4 1.4-2.5 3.6-6.3 4.8-8.5 6.2-10.8 20.5-40 25.1-50.8 2.8-6.7 5.6-13.6 6.4-15.2 0.7-1.7 1.5-3.9 1.8-5s1.5-4.5 2.7-7.5 2.5-6.9 3-8.5c0.4-1.7 1.2-4.1 1.7-5.5 0.6-1.4 1.8-5.2 2.8-8.5s2.3-8 3.1-10.5c0.7-2.5 1.9-7.2 2.7-10.5s2.1-8.3 2.7-11c0.7-2.8 1.6-7.3 2-10.2 0.5-2.8 1.1-5.7 1.5-6.3s1.1-3.9 1.5-7.3c0.5-3.4 1.3-8.7 1.9-11.7 3-15.7 6.8-51.1 8.1-75 0.6-10.7 1-70.9 1-142.3v-123.7l-4.7-5.8c-2.5-3.1-5.2-5.799996-5.9-5.999993-0.8-0.2-2.3 1.299993-3.5 3.299993-2 3.4-4.6 5.5-6.7 5.5-0.6 0 0.1-2.2 1.5-5 1.5-2.999996 2.3-6.199993 2.1-8.199993-0.3-3.1-0.6-3.3-5.2-4-2.7-0.4-5.4-1.2-5.9-1.7-0.6-0.6-2-1.1-3.1-1.1-2.4 0-7.1-4.5-5.7-5.4 0.5-0.3 1.4 0.1 2.1 0.9s2.3 1.5 3.7 1.5c1.3 0 2.6 0.7 2.9 1.5 0.7 1.7 4 2 4.9 0.5 0.3-0.6 0.2-1-0.4-1-1.4 0-5.7-4.6-8.7-9.3l-2.4-3.7h-324c-263.9 0-324 0.2-324 1.3z"
       fill="#fff"
       stroke-width=".1"
       id="path1" />
    <path
       d="m4453 8774c-67-97-203-216-283-248-25-10-60-25-79-33-54-23-205-25-1856-27l-1560-1-3-1465c-3-1636 3-1872 49-2230 6-47 15-119 19-160 5-41 14-102 20-135s18-96 27-140c18-96 40-200 59-277 30-124 46-185 58-228 8-25 21-72 31-105s24-75 31-93c8-18 14-39 14-47s6-29 14-47 21-52 30-75c9-24 23-62 32-85 9-24 22-55 30-70 8-14 14-31 14-36 0-16 165-363 200-422 21-34 97-166 103-180 11-21 27-47 72-115 22-33 42-64 45-70 19-38 176-257 298-414 172-224 520-587 752-787 104-90 371-294 483-370 119-80 203-134 222-144 11-6 34-19 50-30 17-11 39-24 50-30s36-20 55-31c119-73 512-270 685-344 17-7 46-20 65-28s55-23 80-32c55-21 106-43 143-62 36-19 98-19 133 0 16 8 49 23 74 32s52 21 61 25c8 4 76 34 150 65 139 59 333 148 399 184 8 5 29 15 45 23 43 22 139 75 197 109 27 16 51 29 53 29s21 12 42 26 47 30 58 35c34 16 50 27 320 209 223 151 452 346 725 620 318 317 461 490 686 830 42 63 84 126 93 140 10 14 20 32 24 40s16 29 27 45c10 17 31 53 46 80 14 28 41 77 59 110 67 121 184 368 235 495 12 30 28 69 35 85 7 17 16 39 19 50 2 11 21 65 41 120s40 115 45 133c4 19 13 46 18 60 5 15 17 56 27 92 9 36 23 88 30 115 69 251 141 667 166 951 4 56 13 128 19 160 17 91 34 3362 18 3382-11 12-224 14-1628 11-888-2-1642 1-1675 5-165 23-332 131-435 281-17 25-33 45-35 45s-12-12-22-26zm189-332c92-45 182-77 244-87 23-3 672-7 1442-9 1491-3 1432-1 1432-50 0-24 28-70 56-91 32-24 54-18 61 16 15 75 143 112 208 60 45-35 65-71 65-119 0-35-6-49-30-74-27-27-35-30-71-24-29 5-41 3-45-8-8-22 37-83 79-106l38-22-4-1376c-2-1002-6-1410-15-1497-23-221-43-389-58-480-43-269-61-365-86-460-6-22-15-58-19-80s-17-71-29-110c-12-38-25-86-30-105-16-63-38-133-75-235-20-55-40-112-44-126-5-14-13-34-19-45-6-10-27-59-47-109-47-115-162-356-209-440-12-22-35-62-50-90-149-267-439-675-608-856-7-8-51-57-98-109-93-105-106-118-235-240-140-132-265-244-325-291-30-23-57-45-60-49-30-37-361-266-570-393-191-117-430-246-520-281-8-3-22-10-30-15-13-9-42-22-175-80-22-10-60-26-85-36-77-30-171-71-212-92-33-17-59-17-95 1-37 18-73 33-223 96-200 84-408 183-560 266-36 20-85 47-110 61-54 29-71 39-128 76-24 15-45 27-48 27s-17 8-32 19c-15 10-79 53-142 95-183 122-325 227-445 329-16 14-66 56-110 93s-170 158-280 268c-203 204-235 238-315 336-25 30-47 57-51 60-20 17-290 387-334 458-5 9-28 43-51 77-22 33-43 67-47 75s-16 29-27 45c-11 17-24 39-30 50s-19 34-29 50c-20 31-203 396-226 450-7 17-20 46-28 65s-22 54-31 78c-35 92-47 124-60 160-8 20-22 62-32 92-9 30-22 71-29 90-15 42-37 121-60 210-9 36-23 88-31 116s-14 62-14 77c0 14-5 38-11 54-6 15-15 51-19 78-4 28-13 77-19 110-33 172-52 316-83 620-9 87-13 510-15 1517l-4 1397 32 16c47 25 89 72 89 101 0 24-2 26-35 20-114-22-145 151-39 221 18 11 45 17 81 17 61-1 94-24 118-81 9-21 21-33 33-33 25 0 77 58 92 102 6 21 16 41 22 44 5 3 649 8 1431 9 887 2 1439 7 1467 13 54 12 115 34 189 69s108 59 155 110l38 42 44-48c30-34 69-61 126-89z"
       id="path2" />
    <path
       d="m4446 8455c-16-13-54-36-85-51s-67-36-80-46c-23-18-21-18 120-18 190 1 259 8 252 26-3 8-17 17-32 21-29 7-60 24-111 64l-35 27-29-23z"
       id="path3" />
    <path
       d="m889 8252c-13-10-32-21-41-25-27-10-26-103 2-112 10-3 29-1 40 5l21 11-21 36c-19 32-19 38-6 51s18 13 42-2c22-15 25-24 21-49-6-41 0-57 22-57 27 0 41 21 41 61 0 30-7 43-35 68-41 36-54 38-86 13z"
       id="path4" />
    <path
       d="m1220 8257c0-7-18-33-40-57s-40-47-40-51-6-9-12-12c-7-2-4-2 7 0 11 3 32 7 47 10s33 11 39 19c13 16 29 18 29 4 0-17-39-50-58-50-10 0-23-5-29-11s-35-14-64-17c-48-6-54-10-57-32-1-14 11-51 27-83 15-31 25-59 22-62-9-5-56 38-77 70-9 14-21 25-28 25-6 0-35-27-63-59l-53-59v-1279c0-1273 4-1464 36-1724 8-63 14-133 14-155 0-21 6-75 14-119s22-125 31-180c21-126 39-209 85-400 7-27 16-66 21-85 4-19 17-66 29-105 12-38 25-83 30-100 11-40 41-124 76-217 9-24 22-59 29-78 54-147 154-361 241-515 18-33 36-67 40-75 18-35 159-266 202-328 25-37 66-96 90-132 68-98 166-225 278-360 231-276 574-603 859-816 114-85 248-181 300-214 13-8 56-35 95-60s83-53 98-62c15-10 36-22 47-28 11-5 47-25 80-44 190-110 476-249 700-341 50-20 99-41 109-47 33-18 75-27 81-18 9 15-23 67-57 94-19 14-50 26-73 28-47 4-49 20-4 30 38 7 49 22 49 66 0 55 25 33 28-25 3-45 7-54 40-80l38-30 34 28c29 25 35 37 40 81 6 63 30 79 30 19 0-43 7-51 52-60 46-10 37-26-17-31-39-4-59-13-88-39-35-32-49-73-29-85 5-3 26 3 48 13 21 10 64 29 94 41 49 20 85 35 195 84 138 62 340 161 430 212 33 18 67 37 75 41 12 5 140 82 249 148 62 38 345 234 387 268 28 23 100 81 161 129 214 169 535 488 739 734 123 148 366 494 446 634 14 25 36 63 48 85 62 108 205 400 251 508 28 67 56 136 64 152 7 17 15 39 18 50s15 45 27 75 25 69 30 85c4 17 12 41 17 55 6 14 18 52 28 85s23 80 31 105c7 25 19 72 27 105s21 83 27 110c7 28 16 73 20 102 5 28 11 57 15 63s11 39 15 73c5 34 13 87 19 117 30 157 68 511 81 750 6 107 10 709 10 1423v1237l-47 58c-25 31-52 58-59 60-8 2-23-13-35-33-20-34-46-55-67-55-6 0 1 22 15 50 15 30 23 62 21 82-3 31-6 33-52 40-27 4-54 12-59 17-6 6-20 11-31 11-24 0-71 45-57 54 5 3 14-1 21-9s23-15 37-15c13 0 26-7 29-15 7-17 40-20 49-5 3 6 2 10-4 10-14 0-57 46-87 93l-24 37h-3240c-2639 0-3240-2-3240-13zm3275-103c28-19 33-58 10-88-12-16-12-23 2-50 21-43 53-76 73-76 24 0 32 11 18 27-14 17 5 63 26 63 23 0 40-38 26-56-7-7-9-21-6-30 8-20 46-12 86 18 28 20 28 21 10 37-28 24-30 55-3 59 17 3 26-3 33-22 10-26 43-36 55-16 8 13 75 13 75 0 0-5-15-16-32-24-59-26-94-69-113-135-10-35-12-36-69-39-56-3-163 25-194 50-9 8-20 7-40-2-66-32-132-49-189-50-60 0-63 1-68 28-13 59-69 136-112 153-13 5-23 13-23 19 0 15 42 12 64-5 29-22 44-18 48 12 3 29 32 43 50 25 15-15-1-52-23-52-27 0-24-13 10-38 36-26 71-35 91-23 12 8 12 13 1 35-11 21-12 28-1 41 17 21 33 19 48-6 10-15 11-24 3-32-18-18-12-37 12-37 27 0 58 31 76 77 11 27 11 35-3 55-21 29-20 40 5 72 24 31 23 30 54 10zm-2773-215c42-33 79-59 82-59s34-20 70-45c37-25 68-45 71-45 2 0 38-22 78-50 90-61 102-63 93-12-21 129-15 181 18 153 9-8 16-19 16-25 0-32 154-221 171-210 5 3 9 14 9 25 0 26 4 25 58-19 26-20 56-42 67-49 72-43 251-113 289-113 30 0 56-9 56-20 0-12-92-22-209-25-53-1-104-5-114-10-11-4-23-3-29 3-9 9-15 9-25 0-10-8-20-8-36 0-12 6-33 14-47 18-14 3-44 19-68 35s-45 29-47 29-21 12-42 26-47 30-58 35c-26 11-55 31-73 47-7 7-18 9-24 6-6-4-3-11 8-17s24-16 29-23c27-33 278-202 377-255 39-21 171-86 188-93 8-3 22-10 30-15 8-6 28-12 43-16 15-3 25-10 22-15-9-15-51-12-65 5-7 8-24 15-37 15-14 0-37 6-51 14-15 8-61 31-102 51-100 49-178 93-217 121-17 13-35 24-38 24-4 0-24 14-45 30-21 17-41 30-44 30-4 0-31 18-60 40-55 42-66 47-66 30 0-5 7-10 15-10s15-4 15-10c0-12 19-31 80-82 89-73 120-105 120-125 0-11 11-30 25-43s25-31 25-41c0-9 7-22 15-29s15-21 15-31c0-12 7-19 20-19 11 0 20-5 20-11 0-5 13-15 29-20 16-6 32-17 35-25s17-14 32-14c16 0 24-5 22-12-7-19-43-21-58-3-7 8-21 15-32 15-43 0-241 113-368 210-84 64-223 197-292 280-98 117-178 280-214 431-27 118-18 124 69 44 39-37 107-94 149-126zm1338 159c28-42 29-56 9-81-10-14-19-30-19-36 0-23-26-9-52 28l-27 38 27 36c32 43 42 45 62 15zm967-4c22-33 8-58-35-62-26-3-34 2-43 21-26 57 43 94 78 41zm968-19c0-36-3-40-28-43-34-4-57 13-57 42 0 31 20 47 55 44 28-3 30-6 30-43zm932 13c18-18 33-36 33-40 0-15-43-68-56-68-6 0-23 15-38 34l-26 35 21 35c12 20 24 36 27 36s21-14 39-32zm1509-35c-7-69-28-147-52-195-8-14-14-31-14-37 0-17-86-157-137-224-99-129-318-322-453-400-84-48-182-97-194-97-7 0-27-7-44-16-21-10-37-12-48-6-17 10-18 9 27 37 9 5 34 20 56 32 42 23 103 85 103 105 0 6 12 27 26 46 20 25 23 36 14 42-14 8 56 82 127 132 24 17 43 35 43 40 0 4 7 8 15 8s15 5 15 11c0 7 8 18 17 25 10 7 14 16 10 21-5 4-14 0-21-10-7-9-18-17-25-17-6 0-14-7-17-15-4-8-11-15-16-15-6 0-27-12-47-27-20-16-45-33-56-40-11-6-67-41-125-76s-125-73-150-86c-25-12-52-26-60-30-60-31-84-41-99-41-9 0-26-7-37-15-24-18-77-20-72-2 3 6 16 13 31 15 14 2 31 10 37 18 7 8 19 14 26 14 14 0 154 71 212 107 107 66 312 206 312 213 0 5 9 12 20 15 11 4 18 11 15 16-6 9-104-40-136-67-8-8-18-14-22-14-3 0-32-15-64-34s-85-45-117-57c-58-21-60-21-93-4-24 13-39 16-54 9-14-6-47-7-88-1-36 4-88 9-116 10-58 2-70 26-20 40 86 25 133 40 162 53 111 49 140 66 211 122 48 39 52 39 52 7 0-14 4-25 8-25 23 0 188 197 206 244 5 14 10 16 17 9 12-12 8-166-5-195-15-33-5-28 232 117 117 72 195 131 305 233 42 40 80 72 83 72 4 0 4-30 0-67zm-3672 8c14-15 15-24 6-40-6-12-19-21-30-21s-24 9-30 21c-9 16-8 25 6 40 9 10 20 19 24 19s15-9 24-19zm1459 5c20-15 22-37 5-54-18-18-46-14-58 9-9 16-8 25 6 40 20 22 23 23 47 5zm-531-276c66 0 69-1 66-22l-3-23-274-3c-276-2-301 0-301 34 0 16 136 23 324 18 66-2 150-4 188-4zm-1754-130c24-32 63-55 187-110 180-79 253-141 293-246 40-103 21-184-71-309-105-141-133-193-158-290-33-124-19-257 33-324 39-50 102-74 138-51 11 7 4 11-27 16-33 5-43 11-48 31-20 83 40 130 160 124 66-3 144-114 131-186-14-74-86-135-142-121-32 8-30 26 6 61 17 16 30 37 30 47 0 26-10 22-40-13-24-29-32-32-102-37-67-4-82-1-132 22-155 74-202 190-160 401 29 149 48 198 133 349 12 21 20 41 17 44-3 2-8-3-12-12-3-9-10-16-14-16-5 0-23-13-40-29-18-16-45-31-60-34-30-6-47-34-30-51 5-5 10-18 10-28 0-36-82 2-118 54-14 19-13 23 7 40 13 10 29 18 36 18 28 0 107 43 138 75 21 22 40 57 52 94l18 60-24 47c-23 45-96 112-126 113-21 2-111 97-127 136-9 21-16 64-16 96 0 50 3 59 18 59 10 0 28-13 40-30zm3126 4c20-53-12-153-68-209-23-22-67-56-98-74-66-37-93-68-109-121s11-134 60-178c38-35 111-72 142-72 18 0 49-25 49-40 0-16-64-71-97-85-27-11-32-11-37 1-3 8 0 24 7 34 14 24 0 53-29 59-10 2-36 17-57 33-47 37-58 30-29-20 23-37 55-104 86-175 9-21 16-48 16-60s7-44 15-71c23-74 20-213-5-269-21-46-103-127-129-127-8 0-22-7-32-16-12-11-42-16-109-17l-92-2-27 33c-15 17-31 32-34 32-17 0-4-39 23-68 17-18 30-37 30-42 0-16-44-22-75-10-45 17-64 39-80 92-20 68 0 135 53 176 56 45 142 47 192 6 28-24 31-32 28-73-3-46-3-46-48-57l-45-11 38-6c127-20 211 172 161 372-20 77-47 133-108 221-97 140-113 166-129 208-23 57-21 109 5 177 41 108 128 175 338 261 60 24 110 56 139 88 28 30 46 33 55 10zm1666-133c0-101-4-142-20-192-35-110-56-145-152-243-38-38-68-73-68-78 0-13 24-9 46 7 10 8 26 15 35 15s22 7 29 15c18 21 40 19 40-4 0-31-88-140-160-198-65-52-287-173-319-173-9 0-21-4-27-9-9-8-82-30-221-65-85-22-206-21-224 0-11 14-10 18 6 31 11 8 29 11 40 8 46-15 65-17 65-7 0 5-10 13-22 17l-23 6 25 12c71 34 96 67 49 67-33 0-21 15 34 43 173 88 322 181 421 263 89 73 210 193 203 201-4 3-22-9-41-28-78-78-211-181-266-206-8-4-17-10-20-13-6-8-26-18-137-73-43-21-86-43-95-48-29-15-173-64-273-93-157-45-218-55-229-37-7 11 17 21 48 21 12 0 31 7 42 15 10 8 28 14 39 15 31 0 202 58 310 106 17 7 37 15 45 18s23 10 33 16c9 5 25 15 35 20 9 6 27 14 39 19 11 6 24 15 28 20 3 6 13 11 22 11 8 0 32 14 53 30 21 17 42 30 47 30s23 13 41 30c18 16 40 34 50 39 13 8 14 10 2 10-8 0-28-9-45-20-16-10-39-23-50-29s-33-19-50-30c-52-33-230-120-247-120-9 0-19-4-22-8-7-12-114-35-126-27-5 3-10 15-10 26s-11 24-25 31c-14 6-25 14-25 17 1 5 118 64 195 97 104 45 238 104 256 114 236 125 347 207 528 392 41 42 79 74 83 72 4-3 8-63 8-133zm-6429 46c175-170 321-269 567-388 121-58 148-70 227-104 19-8 50-21 68-29 17-8 42-17 55-21 12-3 22-10 22-15s14-11 30-15c37-8 39-22 5-35-17-7-25-17-25-34 0-34-14-40-49-21-17 8-42 15-56 15s-33 4-43 9c-9 4-33 15-52 23-107 46-283 139-293 156-9 13-37 17-37 4 0-8 84-73 110-85 8-4 29-16 45-27 28-18 35-22 68-35 6-3 19-9 27-14 25-15 144-69 165-74 11-3 45-15 75-27s64-24 75-27 34-11 52-19c17-8 42-14 55-14s33-7 44-15c10-8 33-15 49-15 17 0 37-4 44-9 30-19-39-25-94-7-28 9-60 16-71 16-10 0-36 6-59 14-22 8-69 23-105 35-124 39-176 60-305 123-44 21-59 30-123 71-24 15-45 27-48 27-7 0-157 115-190 145-15 14-32 25-38 25s-3-7 7-14c9-7 17-16 17-19 0-7 68-77 75-77 3 0 14-8 24-17 11-10 26-23 33-28 7-6 40-31 73-57 64-49 193-125 313-184 39-20 72-40 72-45 0-4 11-19 25-33s25-37 25-51c0-20 8-29 38-43 39-18 52-30 52-49 0-31-290 19-418 73-18 8-37 14-43 14-10 0-198 90-234 113-48 29-142 103-168 130-32 33-107 133-107 142 0 11 39 4 72-12 18-9 45-23 61-30 58-30 43 1-37 77-89 85-141 171-159 260-16 83-20 259-7 275 7 8 13 15 14 15s35-33 77-73zm3383-6c5-1 1-10-9-21s-15-23-12-27c4-4 43-7 86-7 44-1 83-4 87-8 11-12-24-45-54-53-38-9-9-25 48-25 50 0 85-15 60-25-8-3-35-9-60-13-58-10-66-35-16-52 51-16 120-85 155-154 49-94 42-105-37-56-27 17-53 30-59 30-5 0-14 5-21 12s-32 17-57 23c-49 13-49 12-5-45 15-19 29-44 31-54 5-24 29-34 29-12 0 9 5 16 11 16 15 0 67-59 90-105 23-43 78-118 93-124s46-41 46-51c0-5-17-10-39-10-43 0-111 25-111 40 0 6-5 10-11 10-7 0-18 8-25 18-23 29-15-3 14-59 37-73 109-177 133-192 10-6 19-20 19-31 0-17-5-18-56-12-54 6-126 35-139 56-10 15-35 12-35-5 0-8 5-15 11-15s8-11 5-27-2-35 3-43c8-11 12-9 20 13 12 30 31 28 31-3 0-10 4-21 9-24 5-4 19-27 32-54 32-68 90-162 100-162 5 0 9-7 9-15 0-25-23-17-83 26-63 44-70 41-31-17 43-65 84-101 133-119 95-36 90-55-14-55-88 0-135 20-189 81-46 50-60 51-52 2 4-21 9-46 12-56 9-29-37-2-65 39-13 18-27 34-32 34-14 0-10-63 7-113 9-26 13-55 10-64-13-33-116 93-116 143 0 18-31 74-41 74-4 0-10-19-14-42-4-24-11-50-15-58-10-17-12-12-25 44-7 35-13 30-40-35-12-28-26-50-31-50s-12 15-17 33c-9 36-37 70-43 53-17-42-44-43-44-2 0 24-26 67-40 67-5 0-12-21-16-47-4-27-15-64-26-84-23-44-71-99-86-99-17 0-15 41 3 83 17 40 20 97 6 97-5 0-21-13-34-30-36-42-57-40-57 7v36l-37-40c-62-65-83-74-170-71-44 2-78 8-80 14s18 19 44 28c26 10 67 27 91 38 46 21 123 92 121 111 0 8-2 8-6 0-2-7-10-13-16-13s-18-7-28-16-25-14-34-10c-12 4-3 21 41 76 54 67 58 70 100 70 40 0 44-2 44-25 0-13-5-36-12-50-18-41 0-48 65-25 31 11 62 20 70 20 7 0 31 18 52 40 42 43 65 51 65 23 0-10 10-34 21-53l21-34 24 27c23 27 34 87 15 87-5 0-14-14-20-31-10-29-31-32-31-5 0 8-7 19-15 26-9 7-15 29-15 51 0 52-18 50-52-6-27-45-107-104-140-105-27 0-22 33 12 83 17 25 30 50 30 56 0 15-25 14-39-2-17-22-91-41-105-27-8 8-7 15 1 28 7 9 38 70 71 135 32 64 61 114 65 110 4-3 7-19 7-35 0-34 16-37 26-5 3 12 12 29 19 37s15 28 19 43c6 25 9 27 22 16s19-9 33 9c9 13 20 20 24 16 13-13 7-61-8-74-8-7-15-17-15-23 0-12-35-45-75-71-27-18-29-18-41-1-16 22-34 11-34-20 0-13-4-27-10-30-19-12-10-26 13-19 99 30 177 95 177 148 0 14 5 28 10 31 6 3 10 28 10 54 0 39 4 51 22 63l22 15-19 62c-13 41-34 78-62 109-24 26-43 50-43 54 0 11-70 48-91 48-27 0-24-19 6-30 14-5 25-16 25-24s5-16 12-18c14-5 3-38-13-38-6 0-13 9-16 20-7 26-69 53-157 70-99 19-205 0-263-47-40-32-43-38-43-84 0-71-32-64-74 18-22 45-22 155 2 191 27 43 63 73 112 94 25 11 64 29 88 41 35 17 47 19 60 9 9-6 32-18 50-26 21-10 38-28 47-50 8-19 25-38 37-42 20-6 21-7 4-20-18-13-14-34 6-34 6 0 19 7 28 15 10 9 24 13 33 9 21-8 12-24-14-24-28 0-23-19 7-26 19-5 29-2 36 10 6 10 22 16 44 16 28 0 42 8 69 38 19 20 35 47 35 59 0 16 11 28 40 43 22 11 40 25 40 31 0 11-23 9-95-6-28-6-29-5-11 9 39 32-7 47-66 22-18-8-59-22-91-31l-59-17-56 29c-62 31-77 57-40 68 13 4 46 17 73 30 121 54 188 72 280 78 36 2 248 1 269-2zm-336-248c2-8-5-13-17-13s-21 6-21 16c0 18 31 15 38-3zm-1310-182c-2-3-10-18-17-32-14-27-68-59-101-59-44 0-115 58-95 78 9 9 175 29 198 23 10-2 16-6 15-10zm3089-14c9-9 8-17-6-33-37-46-97-57-154-28-38 20-47 31-47 63v23l98-7c53-4 102-12 109-18zm-1852-66c3-6-2-14-11-19-19-11-11-32 13-32 8 0 30 7 49 16 46 22 56 9 19-21-27-22-40-24-120-25-102 0-171-19-228-63-22-17-38-23-42-17-8 13 19 58 49 83 28 23 103 57 130 58 11 0 37 7 56 14 42 16 77 18 85 6zm-1466-262c56-9 81-23 81-45 0-10 16-14 60-14s60-4 60-13c0-17-28-43-57-51-27-8-28-14-8-40 8-11 15-29 15-39 0-17-5-19-42-13-75 12-209 121-224 183-10 39 2 56 34 48 15-4 51-11 81-16zm3447 6c15-38-36-109-126-177-36-27-111-58-143-58-18 0-18 2 3 37l22 37-41 38c-23 20-41 42-41 47 0 6 28 11 63 13 54 3 62 6 65 24 3 19 15 23 90 36 48 8 91 16 95 17 4 0 10-6 13-14zm-5041-121c53-38 73-50 115-70 143-65 398-113 600-115 184-1 287-12 306-31 15-15 15-20 2-55-13-31-22-39-54-46-39-9-273-3-352 9-23 3-50 3-59 0-31-12 7-26 73-26 34 0 65-5 73-12 16-17 462-17 536-1 28 7 56 8 65 3 11-6 8-10-15-15-17-3-50-12-75-20-25-7-109-19-187-25-303-24-595 31-811 154-13 8-29 19-35 25-14 14-27 14-27 1 0-19 31-43 125-99 127-75 336-123 590-136 144-7 160-10 160-35 0-24 75-54 105-43 27 10 80-2 80-18 0-5-15-9-33-9s-42-7-54-15-52-19-90-25c-37-6-86-14-108-20-22-5-100-10-174-10-130 0-216 12-322 45-26 8-52 15-58 15-19 0-145 64-194 99-48 35-48 51 1 51 12 0 22 4 22 9 0 11-25 21-54 21-85 0-208 188-251 382-20 94-14 110 29 71 17-16 49-43 71-59zm6610 24c-25-195-154-417-242-418-10 0-25-4-33-10-11-7-8-11 15-20l30-12-39-34c-39-34-174-104-201-104-8 0-29-6-47-14-101-44-423-62-541-31-32 8-72 15-90 15s-45 7-61 15c-15 8-38 15-50 15-27 0-53 17-42 27 4 4 29 7 54 6 26-1 51 2 57 7 5 4 23 10 40 12 22 2 31 9 35 28 5 22 12 26 65 31 33 4 103 7 155 8 129 1 309 36 405 77 119 51 155 72 214 123 34 30 37 58 4 30-10-8-38-25-63-37-25-13-52-26-60-31-46-25-65-33-117-50-184-59-384-78-621-57-90 8-169 19-175 25s-27 11-47 11c-19 0-41 4-48 9-27 17 26 19 95 4 88-19 495-15 515 5 7 7 38 12 73 12 33 0 67 4 74 9 27 17-38 25-104 12-89-16-278-14-319 3-42 18-70 67-52 92 16 21 125 32 310 33 121 1 260 17 366 43 25 6 61 14 80 18 96 22 210 78 291 145 35 30 68 54 72 54 5 1 6-23 2-51zm-5049-276c18-12 36-52 30-68-4-10-22-14-60-14-47 0-57 4-75 26-33 42-15 58 69 62 14 1 30-2 36-6zm3512-25c6-30-37-56-95-57-28 0-54 4-57 9s1 23 10 40c16 31 17 32 77 29 50-2 62-6 65-21zm-3238-118c0-10-10-24-22-30-22-12-22-12-3-20 11-4 34-8 52-8 43-1 48-13 17-42-23-21-35-24-102-23-78 1-114 12-174 57-26 19-27 22-11 39 9 10 30 22 47 27 45 14 138 49 144 56 9 9 52-37 52-56zm2983 17c21-9 44-16 53-16 21 0 74-29 74-40 0-5-25-26-56-47-52-34-60-37-137-37-64-1-89 3-111 17-28 19-31 41-5 44 8 1 32 5 54 8l40 7-26 14c-21 10-25 19-21 39 2 14 14 32 25 40 17 12 24 12 46 1 14-7 43-21 64-30zm-2683-128c4-43 12-65 36-95 86-106 250-151 382-105 29 10 55 22 59 25 15 16 33 5 33-18 0-47-60-124-125-158-34-19-56-22-150-21-106 0-113 1-190 38-61 30-97 55-150 110-67 68-87 104-102 178-6 32 29 88 56 88 16 0 17-7 13-51-3-37-2-50 7-45 6 4 11 13 11 20 0 8 7 19 15 26s15 23 15 35c0 27 13 35 55 32 29-2 30-4 35-59zm2321 52c20 0 49-55 49-96 0-12 5-26 10-29 6-4 10 11 10 39 0 25-4 48-10 51-18 11-10 25 15 25 55 0 71-99 29-184-58-116-179-197-347-232-57-11-77-12-132 0-61 13-121 46-153 86-39 49-64 151-29 122 26-22 134-52 187-52 99 0 221 55 273 123 22 29 27 46 27 90 0 55 10 70 38 61 8-2 22-4 33-4zm-1281-88c0-5 15-14 34-22 19-7 37-21 39-32 5-17 8-16 46 9 23 14 41 30 41 35 0 4 9 8 20 8 12 0 45-26 79-63 33-34 76-71 98-83 22-11 45-34 55-54 19-37 24-115 9-124-14-9-103 45-146 90-39 40-78 112-90 167-3 15-10 27-15 27s-12-12-15-27c-26-131-48-193-70-193-19 1-45 73-70 203-8 39-23 34-31-10-8-48-58-150-87-178-37-38-137-89-149-77-26 26 21 172 56 172 14 0 113 92 148 138 17 21 48 31 48 14zm-265-105c-29-59-74-112-120-142-39-26-104-55-121-55s-29 20-18 29c11 7 41 53 68 101 35 64 78 112 97 107 10-3 39 6 66 19 60 28 65 17 28-59zm732 43c54-37 67-38 61-5-3 14-1 25 5 25 12 0 65-57 78-85 6-11 15-29 22-40 53-89 67-115 67-124 0-15-30-13-64 4-15 8-34 15-40 15-17 0-126 98-137 124-6 12-19 37-29 56-19 35-25 60-14 60 3 0 26-13 51-30zm-1745-65c2-21 9-31 24-33 24-3 57-63 47-88-7-19-44-34-84-34-35 0-79 39-79 71 0 38 66 137 81 122 4-5 9-21 11-38zm-340 29c4-3-14-25-38-49-29-29-44-53-44-70 0-24 2-25 56-23 59 3 74-7 74-49 0-28-27-43-76-43-84 0-151 92-124 168 21 60 37 72 95 72 28 0 54-3 57-6zm3127-42c37-59 39-85 6-117-38-39-135-28-135 14 0 34 22 70 44 73 16 2 22 11 24 41 4 51 23 47 61-11zm403 31c77-89 10-223-112-223-56 0-83 28-68 70 10 31 11 31 72 28 56-3 61-1 64 19 2 15-10 36-41 67-25 24-43 47-39 50 3 3 29 6 57 6 37 0 56-5 67-17zm-4132-102c-30-29-47-52-41-56 21-12 10-23-29-30-22-4-42-11-45-15-3-5-31-12-63-16-31-4-74-13-96-20-21-8-68-14-105-14-36 0-84-3-106-7l-40-7 30-7c79-18 291 1 420 36 28 8 69 17 92 21 24 3 45 10 49 15 3 5 22 9 42 9s46 7 56 15c25 19 79 20 74 3-3-7-15-15-29-16-13-2-32-10-43-18s-28-14-38-14c-9 0-32-6-50-14-64-27-247-70-373-87-108-14-326-14-375 0-44 14-107 14-115 1-3-5 7-12 22-15s56-12 90-20c72-18 382-21 452-4 23 5 68 14 100 19 79 13 266 60 314 79 41 16 57 14 57-9 0-11-4-20-10-20-19 0-10-15 20-32 38-22 38-28-3-52-64-39-230-116-249-116-7 0-30-6-53-14-101-35-184-46-351-46-189 0-261 14-375 69-80 39-88 44-170 108-65 50-159 168-159 198 0 19 35 19 125 0 39-8 110-15 158-15 121 0 380 38 513 76 28 8 59 14 70 14 10 0 48 7 84 15s92 18 125 23 64 10 68 11c5 0-15-21-43-48zm4749 15c31-8 90-21 131-29 360-74 568-93 695-62 33 8 73 14 89 15 25 0 28-2 22-26-4-14-17-40-29-58-32-46-162-174-189-186-13-6-36-19-53-30-31-20-36-23-95-45-107-39-147-45-324-45s-225 6-366 46c-103 30-280 108-280 124 0 5-10 10-22 12-23 3-38 28-16 28 21 0 59 46 52 64-5 13 1 16 29 16 20 0 39-4 42-10 3-5 14-10 24-10s41-6 67-14c200-58 322-76 522-76 107 0 181 4 199 12 15 6 50 14 76 17s48 11 48 16c0 17-49 17-119 0-53-14-90-16-182-11-171 10-348 39-445 72-23 8-50 14-61 14s-29 7-40 15c-10 8-31 15-45 15-15 0-32 7-39 15s-22 15-34 15c-11 0-28 4-36 10-28 18 20 24 54 7 17-8 45-17 61-20 39-6 118-25 175-43 25-8 63-14 85-14 22-1 67-7 100-15 63-16 200-20 256-8 33 7 33 7 9 14-14 4-64 7-111 8s-108 7-135 15-69 17-92 20c-56 8-123 42-116 59 2 7-9 26-26 42-16 16-30 32-30 37 0 13 88 9 149-6zm-2339-201c0-95-72-238-113-222-35 13-97 151-97 216 0 38 15 58 32 43 8-6 24-9 36-5 17 4 22 1 22-15 0-32 19-36 30-8 6 16 17 26 29 26 11 0 25 10 32 21 16 31 29 7 29-56zm-517 59c3-3-1-20-8-37-11-27-11-34 8-59 14-19 27-26 39-22 46 14 27-50-31-104-35-32-110-67-121-56s2 104 22 155c15 42 69 129 78 129 4 0 9-3 13-6zm254-90c-3-33-14-65-27-81-25-32-78-66-91-58-14 9-11 102 5 140 8 19 16 35 18 35s21 7 43 14c22 8 44 12 49 9s6-30 3-59zm400 30c24-18 33-35 38-67 8-53 3-99-11-104-17-6-94 67-109 104-16 38-20 85-8 97 11 11 55-3 90-30zm220 19c3-10 11-24 17-31 34-45 63-212 36-212-44 0-170 111-170 149 0 11 16 23 43 32 36 14 42 20 45 47 4 35 19 42 29 15zm-1996-58c-28-35-51-69-51-75s15-24 33-40l32-29-29-26c-24-21-39-25-88-25-53 0-63 3-90 30-33 34-33 53 2 58 27 4 115 70 175 130 62 63 72 49 16-23zm3107-7c62-57 124-98 149-98 31 0 30-29-2-64-20-22-32-26-81-26-104 0-168 69-88 95 26 8 30 14 24 30-5 11-19 31-32 45-21 22-48 65-48 77 0 7 37-21 78-59zm-2769-4c-13-16-32-47-46-74-4-8-26-43-50-78s-43-67-43-71c0-5-7-14-15-21s-15-21-15-32c0-17 5-20 29-15 39 8 45-10 19-62-35-72-159-163-186-137-8 9 16 104 40 151 34 68 40 77 153 228 68 92 113 143 119 137s4-15-5-26zm1781-15c0-20-4-29-12-27-15 5-22 33-14 54 9 24 26 6 26-27zm636 18c28-30 199-258 207-277 4-8 17-31 28-50 24-40 49-114 49-147 0-31-26-30-81 6-94 59-156 171-95 171 38 0 40 16 7 70-17 28-31 53-31 56s-12 23-27 43c-35 45-50 70-62 98-6 11-15 24-20 28-13 7-15 25-3 25 4 0 16-10 28-23zm-1781-36c-3-12-11-21-16-21-10 0-12 43-2 53 12 13 25-10 18-32zm-480-11c3-5 1-19-5-30-14-26-90-81-101-74-18 11-9 65 16 89 25 25 78 34 90 15zm1985-18c0-9 7-26 15-36 8-11 15-39 15-63 0-33-5-45-21-53-15-9-24-8-35 1-12 10-14 27-9 83 4 39 8 77 11 84 5 18 24 5 24-16zm162 18c27 0 48-29 48-66 0-38-8-41-49-20-53 28-85 105-38 92 12-3 30-6 39-6zm-2022-28c0-15 8-44 18-64 20-39 15-60-18-78-32-17-60 4-60 44 0 37 36 126 50 126 6 0 10-13 10-28zm1700-192c6-63 16-128 22-145 19-57 26-95 17-100-14-9-102 40-138 77-31 32-67 88-56 88 3 0 15-5 28-12 47-24 59-29 61-26 2 2 8 62 14 135 16 204 29 200 52-17zm-1513 61c2-25 3-55 4-65 0-11 4-27 9-37 7-12 5-21-6-30-10-8-12-15-4-23 7-7 14-4 24 9 13 18 13 18 24-1 9-16 14-17 31-6 18 11 21 10 21-7 0-20-89-106-125-122-11-5-27-14-36-21-9-6-24-8-33-5-18 7-17 19 8 87 18 48 37 143 43 215 2 33 7 67 9 75 9 25 26-16 31-69zm620 42c4-10 17-35 30-55 13-21 23-41 23-46 0-27-148-140-164-125-3 4-6 34-6 67 1 73 25 129 66 157 36 23 43 24 51 2zm269-5c38-26 64-92 64-165 0-59-7-63-60-37-39 20-110 89-109 107 0 6 9 26 20 42 10 17 23 40 29 53 12 27 16 27 56 0zm-472-34c24-36 24-38 8-78-26-66-82-134-146-177-33-22-64-38-70-36-14 5-9 53 10 94 8 18 22 50 32 70 32 70 105 163 129 163 7 0 23-16 37-36zm721-16c74-83 151-268 110-268-65 0-225 172-225 242 0 15 49 78 60 78 4 0 29-23 55-52zm-2595-28c0-30-40-81-97-125-36-27-73-53-82-58-9-4-29-16-46-27-16-11-40-24-52-30-13-5-23-14-23-20 0-16 40-12 46 5 4 8 15 15 25 15 11 0 22 7 25 15 4 8 14 15 24 15s23 7 30 15 19 15 27 15c7 0 16 7 19 15 4 8 12 15 19 15 8 0 20 6 27 13 16 14 45 33 73 47 11 6 34 19 50 30 17 11 40 24 52 29 11 5 24 15 28 20 7 13 35 15 35 3 0-11-195-153-241-176-8-3-27-15-44-26-16-11-39-24-50-30s-33-19-50-30c-16-11-40-24-52-29-11-5-24-15-28-20-3-6-14-11-24-11s-24-6-31-14c-6-8-21-16-32-18-12-2-23-9-26-15-5-18 33-16 48 2 7 8 23 15 35 15s28 7 35 15 20 15 30 15 23 7 30 15 18 15 25 15c6 0 33 11 59 25 84 45 159 24 105-29-13-12-31-26-39-29-8-4-28-16-45-26-45-29-199-102-285-136-25-9-54-22-65-28-11-5-33-14-50-18-16-4-43-12-60-17-197-68-423-91-530-54-52 18-62 35-23 40 25 4 129 38 156 51 9 4 35 16 57 26 99 44 284 150 500 285 22 14 218 133 256 155 89 52 159 77 159 55zm4220-21c0-5 9-9 19-9 11 0 23-5 26-11 4-5 17-15 28-20 12-5 36-18 52-29 17-11 40-24 53-30 12-5 22-14 22-20 0-5 6-10 14-10 7 0 19-7 26-15s20-15 30-15 20-7 24-15c3-8 14-15 25-15 10 0 21-7 25-15 3-8 13-15 21-15 9 0 23-7 31-15 9-8 22-15 31-15 21 0 10 24-13 29-10 2-23 9-27 17s-14 14-21 14c-8 0-19 7-26 15s-18 15-25 15c-13 0-62 38-122 97-35 33-46 83-19 83 15 0 128-57 181-91 17-10 39-23 50-29 21-11 33-18 196-116 59-35 109-64 112-64 4 0 23-12 44-26s47-30 58-35 34-18 50-29c92-59 335-169 409-185 39-8 24-21-49-39-66-18-177-20-245-5-25 5-63 12-85 15-98 14-262 72-457 164-48 22-98 45-110 50-13 6-36 19-53 30-16 11-37 23-45 27-36 16-58 48-53 76 6 32 17 31 102-14 30-16 59-29 66-29s18-7 25-15 20-15 30-15 23-7 30-15c14-17 60-21 60-5 0 6-13 13-29 16-17 4-32 12-35 20s-15 14-26 14-20 5-20 10c0 6-10 15-22 20-13 6-36 19-53 30-16 11-39 24-50 29s-37 21-58 35-40 26-44 26c-3 0-22 14-43 30-21 17-41 30-44 30s-14 8-25 18c-30 27-64 52-74 52-4 0-6 4-2 10 7 11 35 2 35-11zm-3190-27c0-10-7-27-15-38-8-10-15-26-15-34 0-9-5-21-12-28-6-6-24-39-39-74-19-44-33-63-46-63-24 0-30 47-9 65 9 7 16 16 16 21s19 37 43 72c24 34 46 70 50 80 8 23 27 22 27-1zm2338 1c4-10 33-58 65-106 42-63 57-95 55-115-3-29-26-36-39-12-8 17-57 115-69 139-4 9-15 30-24 48-18 35-21 63-6 63 6 0 14-8 18-17zm-1163-72c3-16 13-35 21-42 8-6 14-19 15-28 0-10 2-11 6-3 7 18 41 15 79-9 38-23 54-65 54-141 0-42-3-48-21-48-33 0-105 56-133 105-15 25-32 45-39 45s-21-17-32-37c-40-75-131-141-158-114-7 7-7 35 1 88 9 66 15 81 38 100 36 28 64 35 71 17s33-18 33 0c0 26 40 107 49 102 5-4 12-19 16-35zm-948-17c-8-16-17-48-20-72-4-35-2-44 14-52 10-6 19-17 19-24s8-24 19-37c10-13 16-30 14-37-9-25-83-63-116-60-30 3-32 6-35 47-4 56 24 140 87 258 19 36 37 14 18-23zm1909-44c48-109 64-183 48-224-9-23-57-20-98 7-42 26-53 52-33 75 7 9 17 25 20 35 4 9 16 17 28 17 16 0 19 4 14 18-4 9-10 41-13 70-2 28-8 52-13 52s-9 8-9 18c0 14 4 12 20-8 12-14 27-41 36-60zm-4220 35c20-48 17-85-9-118l-23-27-37 35c-44 41-46 57-12 79 14 10 30 28 35 42 13 34 28 30 46-11zm6492 11c6-14 23-32 37-42 32-21 32-32-6-71-36-39-45-40-70-10-22 27-24 66-5 112 18 41 29 44 44 11zm-2905-102c7-13 23-44 36-71 14-26 44-74 68-105 27-35 39-59 32-63-5-4-38 3-72 16-75 28-135 85-161 152l-18 49 31 28c17 16 31 34 31 41 0 16 37-17 53-47zm-607-87c-20-46-37-70-69-92-36-26-126-65-149-65-14 0-9 26 10 46 28 33 57 76 92 139 18 33 41 70 52 82l20 22 35-36 35-35-26-61zm2323 49c22-18 46-40 54-47 59-57 355-337 407-384 36-33 70-64 76-70 107-99 250-217 334-273 30-20 99-58 154-85 54-27 94-52 90-57-5-4-39-15-76-25-77-20-299-18-320 3-7 7-21 12-32 12-22 0-169 70-174 82-2 5-8 8-12 8-5 0-29 14-54 31-56 37-73 31-43-17 43-70 57-94 52-94-27 0-275 178-370 265-166 154-253 249-235 260 6 4 18 1 27-6 14-12 15-10 9 19-17 73 40 37 409-258 28-22 64-47 80-55 17-9 37-19 45-24 48-28 125-61 141-61 11 0 22-7 25-15 7-17 44-21 44-4 0 6-9 13-20 16s-20 9-20 14-10 14-22 19c-27 12-25 11-188 116-69 45-171 119-225 164-115 95-465 444-465 464 0 19 31-4 118-88 122-118 195-181 318-277 37-30 82-66 98-81 17-16 35-28 41-28 5 0 23-14 39-30 16-17 35-30 43-30 7 0 13-4 13-10 0-5 7-10 16-10s-15 29-56 68c-235 222-350 342-350 369 0 6-5 13-10 15-6 2-12 24-13 50-2 26-6 51-10 54-12 12-8 34 7 34 8 0 32-15 55-34zm-4082 8c5-14 1-27-32-83-10-18-11-28-2-41 9-15 2-28-39-75-57-68-155-166-279-283-49-45-86-84-83-87 7-8 183 124 283 211 44 38 99 84 123 101 23 16 86 72 140 124 131 125 141 133 148 126 4-3-5-19-19-34-202-221-218-238-342-350-106-95-241-198-365-277-41-27-87-57-102-67-15-11-32-19-38-19s-13-6-16-14-17-17-30-20c-14-4-22-11-19-16 8-13 45-13 45 0 0 6 7 10 15 10 33 0 214 106 329 192 66 51 126 97 132 103s45 36 86 68c86 66 122 77 156 47l24-20-20-32c-33-53-239-249-347-330-163-122-308-202-251-139 9 10 16 22 16 28s7 16 15 23c17 14 20 50 5 50-6 0-32-15-58-33-50-35-174-97-195-97-6 0-30-7-52-15-84-30-366-12-409 26-5 4 11 16 35 26 219 87 380 210 819 627 53 50 138 129 189 176s98 90 104 97c16 17 27 16 34-3zm2737-90c13-5 16-24 16-108 0-108 31-372 49-419 13-33 15-87 3-87-28 0-94 110-122 205-36 120-33 311 6 386 15 30 22 33 48 23zm-1401-19c30-30 42-88 41-210-1-121-13-182-52-265-21-43-80-120-93-120-12 0-12 56 1 79 17 33 50 291 50 396 0 57 3 110 6 119 8 20 28 20 47 1zm750-41c31-31 62-64 67-74 19-36 9-160-12-160-25 0-107 131-108 172 0 32-18 47-26 21-19-57-50-123-77-161-29-39-32-42-44-26-17 23-17 135 0 156 6 8 26 24 43 36s42 37 55 56c13 20 29 36 34 36 6 0 36-26 68-56zm-1696-60c3-9 2-24-4-33-15-23 4-58 34-66 22-5 25-10 20-39-10-60-92-217-184-349-51-73-79-111-148-196-35-44-117-133-224-244-57-59-100-111-96-115s10-1 12 6c3 6 9 12 15 12 14 0 54 36 198 180 151 150 333 386 420 546 12 21 30 53 41 69 10 17 21 37 25 45 3 8 10 22 15 30s14 27 20 43c6 15 15 27 20 27 14 0 11-34-6-56-8-10-15-26-15-35s-7-22-15-29-15-20-15-30-7-23-15-30-15-23-15-35-7-28-15-35c-20-17-19-27 5-47 11-10 20-27 20-38 0-76-214-366-399-543-71-68-256-212-272-212-6 0-25-11-42-24-18-13-54-33-82-45-27-12-62-28-77-36-14-8-35-15-46-15s-35-6-53-14c-65-26-289-31-289-6 0 5 21 18 48 31 101 48 267 194 390 344 36 44 71 85 77 90 6 6 46 57 89 115 42 58 92 125 111 150s57 77 85 115c28 39 87 120 131 180 174 239 209 290 209 297 0 15 21 8 27-8zm1373-9c6-15 17-25 29-25 30 0 35-17 17-64s-80-113-111-118c-17-3-20 3-23 47-4 62 11 115 44 155 14 16 28 30 30 30 3 0 9-11 14-25zm1910 17c0-7 34-55 207-292 26-36 66-93 89-127 24-33 49-69 57-80 9-10 76-99 149-198 177-237 267-341 417-477 54-50 146-113 187-129 35-13 29-26-13-32-52-8-223 7-250 21-12 7-30 12-41 12-25 0-193 86-284 146-82 53-171 128-265 222-56 56-98 104-211 242-44 54-136 201-150 239-10 29-9 38 3 51 21 23 18 47-10 105-14 28-25 55-25 61s-7 17-15 24-15 21-15 32-7 26-15 34c-18 19-20 57-2 52 6-3 14-15 15-29 2-13 10-28 18-32s14-17 14-27 5-22 11-25c5-4 15-17 20-28 10-23 22-42 54-92 180-281 252-374 420-540 138-137 170-165 185-165 19 0 10 12-111 141-147 157-172 186-245 284-93 123-217 318-240 375-3 8-9 24-14 35-4 11-13 33-19 48-9 22-8 33 3 48 9 13 16 16 21 10 3-6 10-11 15-11 16 0 21 38 9 59-10 15-10 23 0 35 14 17 31 21 31 8zm-1333-62c16-31 23-63 23-102 0-51-2-58-20-58-43 0-130 108-130 160 0 14 7 20 24 20 13 0 29 7 36 15 21 25 43 13 67-35zm-1754-6c-4-10-9-12-15-6-12 12-1 35 12 27 5-3 6-13 3-21zm1024-20c7-20-57-94-94-109-52-22-62-15-57 37 11 93 7 89 81 86 37-2 68-8 70-14zm944 0c16-19 26-124 11-124-49 0-151 92-138 125 8 21 109 21 127-1zm-553-156c-11-93-86-197-162-223-31-11-38-11-43 1-6 15-5 18 32 83 14 24 25 50 25 57s26 34 58 61c31 26 59 51 60 56 2 4 11 7 19 7 12 0 15-9 11-42zm64 34c2-5 29-28 61-51 31-24 57-48 57-53s14-36 30-70c40-79 39-92-2-82-38 8-91 45-119 85-24 33-61 148-55 166 6 14 23 17 28 5zm-1140-91c4-71-6-198-18-227-8-18-14-50-14-71s-7-47-15-57c-8-11-15-38-15-59 0-34 2-38 15-27 8 7 15 29 15 49s7 45 15 55c8 11 15 34 15 51s7 40 15 52c8 11 17 39 21 62 7 45 37 73 48 45s6-124-9-192c-58-252-145-427-283-569-62-64-77-75-80-59-4 21 11 102 33 171 7 22 19 65 28 95 8 30 22 80 30 110 20 71 41 157 62 245 9 39 22 95 30 125 31 127 38 157 46 199 5 25 15 48 22 53 16 10 36-18 39-51zm688 22c0-9 9-27 21-39 45-47-7-95-153-141-10-3-25-2-34 1-17 7 0 32 99 148 48 56 67 64 67 31zm957-120c50-60 32-79-44-47-93 39-123 59-135 88-11 26-10 31 10 44 12 8 22 22 22 32 0 46 31 22 147-117zm610 75c25-88 64-242 83-328 27-123 92-380 134-521 9-31 13-64 10-74-6-14-16-7-61 37-129 126-207 260-269 463-34 111-59 274-48 318 16 65 34 36 75-123 6-25 18-57 25-72 8-14 14-40 14-56 0-17 7-37 15-46 8-8 15-30 15-50 0-19 7-41 15-50 8-8 15-24 15-34 0-29 11-53 21-46 14 8 10 50-6 64-9 7-15 29-15 51 0 20-7 44-15 53-8 8-15 32-15 53-1 21-7 49-15 63s-14 40-15 58c0 19-7 59-16 89-26 88-11 223 25 223 3 0 16-33 28-72zm-793-111c20-40 36-79 36-86 0-6 7-26 16-43 27-52 4-56-68-11-58 36-64 42-70 83-4 25-10 61-14 80-5 29-4 33 7 23 18-18 27-16 34 7 11 33 22 23 59-53zm-656 43c35-22 40-40 17-64-8-8-15-28-15-44 0-33-28-62-93-97-65-34-68-6-11 108 8 16 14 34 14 41s9 21 20 31 20 24 20 32c0 18 9 16 48-7zm312-20c27-52 26-140-1-199-22-49-28-47-52 17-23 58-22 134 3 182 11 22 22 40 25 40s14-18 25-40zm1454-76c7-18 0-34-15-34-5 0-9 11-9 25 0 28 15 34 24 9zm-2930-10c7-19-1-34-19-34-10 0-11-8-2-42 8-31 7-43-1-46-7-2-12-19-12-37 0-20-6-35-15-39-8-3-15-16-15-30 0-13-7-26-15-30-8-3-15-14-15-24 0-11-7-25-15-32s-15-20-15-30-7-23-15-30-15-21-15-31c0-11-4-19-9-19s-13-10-17-22c-3-12-13-28-20-36-16-16-18-28-4-37 5-3 12 5 16 19 3 13 12 27 20 30s14 14 14 25c0 10 7 21 15 25 8 3 15 13 15 21 0 9 7 23 15 31 8 9 15 24 15 34s7 20 15 24c8 3 15 16 15 30 0 13 7 26 15 30 8 3 15 16 15 30 0 13 7 26 15 30 9 3 15 18 15 36 0 20 5 30 15 30s15 11 15 35 5 35 15 35c16 0 22-55 7-64-5-3-7-30-4-60 4-51-4-85-40-176-18-45-40-95-49-110-4-8-18-35-30-60-57-117-163-273-247-363-52-55-157-134-222-167-25-12-53-26-62-31-27-14-23 11 9 57 98 143 103 151 248 439 64 127 132 257 151 290s39 69 44 80c6 11 19 34 30 50 11 17 31 53 46 80 14 28 32 62 40 78 17 31 29 34 38 11zm2966-46c6-13 21-41 33-63 71-123 120-215 237-450 72-143 135-267 140-275s31-51 56-95c26-44 53-87 60-95s17-27 23-42c9-25 8-27-7-19-9 5-37 19-62 31-174 89-371 318-481 560-35 78-61 134-69 150-4 9-11 31-15 50s-12 41-17 47c-7 8-7 32-1 68 8 44 7 57-4 67-15 12-14 57 2 61 6 1 11-13 13-30 2-21 9-33 18-33s14-11 14-34c0-21 6-36 15-40 8-3 15-14 15-24 0-11 7-25 15-32s15-20 15-30 7-23 15-30 15-21 15-32c0-10 7-21 15-24 8-4 15-14 15-24s7-23 15-30 15-21 15-32c0-10 7-21 15-24 8-4 15-14 15-25 0-10 6-22 13-26 8-4 16-16 20-25 3-10 11-18 17-18 15 0 12 16-5 30-8 7-15 21-15 32 0 10-7 21-15 24-8 4-15 14-15 24s-7 23-15 30-15 21-15 32c0 10-7 21-15 24-8 4-15 14-15 24s-7 25-15 34c-8 8-15 21-15 29s-7 20-15 27-15 20-15 30-7 23-15 30-15 25-15 41-7 32-17 38c-16 8-16 12 2 50 23 47 31 50 45 19zm-1589-65c16-36 29-70 29-76-1-15-35-57-47-57-23 0-43 60-43 127 0 106 15 107 61 6zm211-10c-1-46-8-73-22-94-23-31-41-30-60 6-11 21-10 31 10 77 51 119 77 123 72 11zm-343-2c17-52 14-65-26-104-61-61-80-48-62 42 7 37 20 68 36 86 28 29 35 26 52-24zm470 20c23-32 51-129 44-148-8-20-23-15-69 23-43 34-58 74-35 89 5 3 12 19 16 35 8 38 18 38 44 1zm-939-91c0-5-4-10-10-10-5 0-10-4-10-10 0-5 9-10 20-10 20 0 60-33 60-49 0-17 22-24 31-10 4 7 11 10 16 6 4-4 2-17-5-27-7-11-12-30-12-43s-5-28-11-34-9-17-6-25c4-8 8-5 13 10 12 41 29 17 32-46 3-68 22-84 40-34l10 27 3-25c1-14 2-68 3-120s5-105 10-117c9-27-14-32-34-8-7 9-20 13-28 10-10-4-29 9-54 37-43 49-55 45-64-23-8-59 24-139 55-139 12 0 21-5 21-10 0-6 11-15 24-20 19-7 26-20 36-77 8-42 24-85 41-111 23-34 26-44 14-48-29-12-165 99-165 134 0 5-7 15-15 22s-15 23-15 35c0 31-10 55-22 55-6 0-8-21-5-52 7-80 34-168 83-276 13-29 24-54 24-56 0-3-12 2-27 9-31 15-101 87-121 123-21 37-52 144-52 179 0 52-17 47-45-13-15-31-49-79-76-106s-49-51-49-53c0-11 43-4 65 11 13 8 34 14 47 12 19-2 24-11 29-48 5-41 13-73 41-155 32-95 20-97-61-8-64 70-85 77-57 19 23-48 21-130-5-183-11-24-25-43-30-43s-9 28-9 63c0 34-8 85-17 112-19 55-80 155-94 155s-11-34 6-66c8-16 15-34 15-41 0-20-20-25-26-8-14 34-89 106-133 126-25 12-58 28-73 35-14 8-33 14-42 14-8 0-20 9-26 19-9 17-5 20 41 30 27 6 55 11 60 11 12 0 75 26 99 41 8 5 24 13 35 18 35 15 127 103 117 113-5 5-25 1-48-8-54-23-239-23-262 0-9 8-13 18-10 21s36 12 74 19c134 26 238 93 323 206 59 80 66 106 24 95-16-3-59-9-98-12l-70-5 19 21c11 12 64 48 119 81 74 44 106 58 124 54 25-7 53 10 53 32 0 10-14 14-49 14-58 0-104 15-99 32 3 7 26 24 51 38 26 14 61 38 78 53s35 27 40 27 9 5 9 10c0 6 7 10 15 10s15-4 15-10zm1461-59c31-21 66-42 77-45 25-8 29-41 6-50-9-3-42-6-75-6-46 0-59-3-59-15 0-17 46-39 61-30 12 8 102-38 149-75 21-17 42-30 46-30 5-1 20-10 33-21 21-17 22-22 10-29-15-10-75-4-123 11-71 22-74 0-11-81 95-124 208-196 343-219 72-13 95-32 52-46s-211-7-260 11c-27 10-53 14-57 10-13-13 102-110 169-143 35-17 85-34 112-37 96-15 101-32 19-65-120-48-192-101-214-158-7-20-12-24-22-14-9 9-8 19 2 44 31 75 25 97-15 54-48-52-84-153-84-239 0-71-18-78-45-18-24 52-24 164-1 189 9 10 13 20 10 24-4 3-36-25-73-63-64-67-102-92-82-52 23 44 71 193 71 219 0 11 6 27 13 37 12 17 16 17 51 2 37-15 76-21 76-11 0 2-23 27-50 54-28 28-55 61-60 73-6 13-14 30-19 38s-12 23-15 33c-9 28-26 10-26-27s-29-132-55-184c-31-60-124-137-142-118-3 3 6 26 20 53 14 26 33 73 43 103 9 30 23 72 30 93 16 43 19 117 4 117-5 0-12-12-15-27-15-67-85-161-145-192-48-25-60-26-60-6 0 8 5 15 10 15 6 0 10 6 10 14 0 7 6 19 14 25s17 33 20 59c16 110 17 112 43 112 15 0 33 10 45 25 11 14 25 25 33 25 27 0 30 159 3 176-6 4-26-12-45-35-19-22-43-41-53-41s-22-4-25-10c-3-5-18-10-32-10-20 0-24 3-18 18 16 38 25 120 19 180-4 42-3 62 5 62 6 0 13-11 17-25 3-14 12-29 18-33 7-4 17-23 24-42l11-35-5 40c-17 131-17 146 4 152 24 6 35 39 21 64-23 44-1 79 27 42 17-24 32-8 16 17-16 26-15 50 2 50 8 0 16 7 20 15 10 28 67 18 127-24zm-913-61c12-16 22-35 22-42 0-19-63-108-77-108-22 0-37 83-22 129 19 59 44 66 77 21zm156-8c17-34 27-113 20-149-3-16-16-41-28-56l-23-29-23 38c-18 32-21 50-18 109 2 46 9 81 21 98 20 31 31 28 51-11zm172 6c18-35 15-121-4-140-16-16-46 13-74 69l-22 43 22 20c12 12 22 25 22 30 0 24 41 8 56-22zm-3187-304c37-54 38-63 7-98-30-35-52-31-79 16-20 34-20 38-5 55 8 10 19 33 23 51 8 38 14 36 54-24zm2558-4c2-3 13 6 23 20 15 19 20 22 24 10 27-82 50-142 57-146 5-3 9-14 9-25 0-16-5-18-27-13-58 12-114 107-112 186l1 33 10-30c6-16 13-32 15-35zm3428 3c22-48 24-61 14-85-25-60-51-58-90 7-18 29-18 30 5 60 13 16 26 40 30 53 4 12 9 22 12 22 2 0 16-26 29-57zm-2570-13c20 0 1-77-26-107-23-24-37-32-87-47l-22-7 20 33c21 35 21 35 53 117 21 51 22 52 35 32 8-12 20-21 27-21zm-445-20 19-25 10 28c9 22 17 27 46 27 19 0 35-4 35-9 0-41-72-171-95-171-20 0-72 90-80 137-6 41-6 42 20 40 15-1 35-13 45-27zm180-311c0-53 125-206 188-230 31-12 28-29-7-29-44 0-114 35-158 80-22 22-42 37-45 35-7-7 23-90 51-143 28-55 94-127 146-161 34-22 51-26 118-26 65 0 81 3 92 19 9 11 20 16 30 12 12-4 15-14 9-43-26-151-205-164-335-26-66 71-149 202-149 236 0 8-6 20-14 26-7 6-16 25-20 42-3 19-10 28-17 23-12-7-8-40 11-94 53-148 77-197 134-275 94-129 235-236 374-285 80-28 216-28 271 1 38 19 71 67 71 102s20 25 39-19c27-60 26-118-2-174-79-158-318-166-542-18-61 40-128 105-117 112 5 3 15-1 22-9s21-15 31-15 21-5 24-10c11-18 136-71 158-68 36 5 25 30-18 43-22 6-49 16-60 23-11 6-27 13-35 16-46 18-165 104-219 159-58 59-120 152-121 178 0 9-6 22-14 29-8 6-16 26-18 43-3 34-21 40-26 9-4-25 29-122 65-192 43-85 134-200 214-271 41-35 76-67 77-71 2-5 8-8 14-8 5 0 36-20 68-45s62-45 65-45c4 0 27-13 52-30 24-16 46-30 49-30 23 0 175-159 226-236 79-118 133-153 204-131 27 8 40 20 50 44 17 40 5 71-37 96-43 24-32 41 30 45 49 3 55 1 86-32 57-61 59-168 3-239-34-43-113-87-156-87-38 0-120 30-160 58-30 22-32 22-38 5-37-122-148-213-259-213-115 1-215 91-215 195 0 39 24 105 38 105 5 0 17-19 26-42 20-53 55-79 110-85 50-5 79 10 119 59 28 35 30 43 30 122-1 90-8 111-68 191-41 57-59 73-155 145-114 86-235 208-295 300-28 41-54 84-58 94-5 14-11 16-18 9s-7-24 1-54c7-24 16-66 20-94 22-148 79-293 151-385 39-49 83-76 142-85 51-8 49-33-5-68-45-29-114-23-169 15-46 31-119 128-119 158 0 8-7 24-15 34-8 11-15 32-15 46s-7 35-15 46c-8 10-15 40-15 65 0 61-10 110-21 103-14-8-10-105 6-149 8-22 15-53 15-70 0-16 6-59 15-95 8-36 21-112 30-170 21-141 44-248 61-288 8-18 14-37 14-42 0-6 14-40 32-77 33-72 71-127 124-180 30-31 31-33 21-82-11-59-2-134 18-151 8-7 15-17 15-23 0-15 69-77 98-88 36-14 16-29-38-29-62 0-149 33-200 77-39 33-130 161-130 182 0 5-6 22-14 38-31 63-76 266-62 280 3 4 6 0 6-9 0-8 9-23 19-32 11-10 21-28 23-40 2-11 8-21 13-21 16 0 18 45 2 63-8 9-17 33-20 52s-10 55-15 80c-21 95-34 182-41 270-12 136-22 127-35-30-9-97-26-209-42-262-8-26-14-58-14-72 0-37 27-33 40 7 8 27 9 24 4-23-9-95-21-164-34-200-41-111-67-160-125-232-67-83-150-127-242-128-68 0-79 11-34 34 42 22 109 103 121 145 13 46 13 76-1 126-11 38-10 41 23 70 19 16 46 46 60 65 33 46 98 169 98 187 0 8 6 27 14 41 20 39 76 321 76 384 0 19 7 57 15 84 16 54 20 144 6 144-11 0-21-25-21-52 0-11-7-34-16-51-10-18-24-45-32-62-26-50-65-97-106-127-52-38-116-39-169-3-54 37-46 65 19 65 72 0 169 117 227 275 26 72 47 151 47 181 0 17 7 55 15 87 16 63 10 111-9 67-24-56-115-179-181-245-77-78-99-96-195-170-148-111-200-195-200-320 0-124 42-180 135-180 63 0 97 24 125 88 11 26 22 47 25 47 8 0 45-93 45-115 0-35-36-107-67-135-95-86-244-78-337 17-41 43-76 104-76 133 0 26-14 25-53-3-41-30-109-57-146-57-29 0-104 30-131 53-78 65-91 203-25 273 28 29 39 34 78 34 25 0 48-4 51-9 9-14-4-40-23-46-31-9-43-51-27-90 12-27 22-35 50-41 83-15 130 15 209 137 49 76 155 180 240 235 39 25 84 55 99 65 15 11 30 19 33 19 14 0 165 123 216 177 68 71 138 164 162 218 10 22 25 53 33 68 8 16 14 40 14 53 0 14 7 36 16 50 13 19 14 30 7 47-10 21-11 21-18-8-8-34-11-43-25-67-16-29-28-51-50-94-29-58-122-151-205-206-75-49-182-98-215-98-24 0-26-13-5-30 13-11 24-10 58 1 48 15 144 64 168 85 18 16 29 18 29 4s-25-37-95-90c-189-142-428-168-537-59-57 57-75 167-38 240 21 41 40 44 40 7 0-35 38-84 78-102 53-24 216-18 287 10 211 85 374 256 458 479 32 87 46 147 37 168-7 19-9 16-15-20-4-23-14-44-21-47-8-3-14-13-14-23-1-10-12-36-25-58-14-22-28-47-32-55-15-34-96-131-136-164-23-19-66-42-95-51-49-16-55-16-96-1-24 9-53 27-65 40-23 25-46 100-36 117 9 14 32 11 38-4 3-8 26-20 52-27 41-11 54-11 103 5 45 14 69 31 122 84 36 36 75 86 86 111 40 85 57 130 51 136-3 3-24-12-47-35-46-45-117-81-161-81-41 0-36 14 15 44 74 43 153 149 170 228 4 15 16 33 28 39 30 16 47-10 41-64-4-38-3-40 10-24 18 22 33 22 64-3 34-26 47-25 61 5s32 33 32 5c0-11 5-20 11-20s8 15 4 43c-5 34-3 48 10 60 15 16 18 15 41-10 13-14 24-34 24-44zm-2635-129c12-37-20-55-45-25-10 12-10 18 0 30 17 21 37 19 45-5zm4970-10c0-18-6-26-23-28-24-4-38 18-28 44 3 9 15 14 28 12 17-2 23-10 23-28zm-5093-30c13-26 16-49 11-90-6-55-6-55 13-32 23 27 71 42 102 31 20-7 23-15 20-46-3-42-28-55-56-30-19 17-61 7-63-15-3-38 4-74 17-84 24-19 16-36-13-32-24 3-28-1-31-24-4-34-29-37-34-5-2 16-11 23-30 25-31 4-36 19-14 36 13 10 20 47 17 83-2 21-41 26-61 8-14-13-23-14-38-6-24 13-35 71-17 90 15 16 68 7 86-15 23-28 31-15 25 39-13 100 29 142 66 67zm5219 13c5-15 7-50 3-80-6-54 2-67 26-38 19 23 79 31 97 13 12-13 13-22 2-57-7-22-18-41-26-41-7 0-13 4-13 10 0 5-9 14-20 20-15 8-26 7-44-5-20-14-25-24-23-57 1-22 7-42 14-45 23-9 14-33-12-33-18 0-29-8-37-27l-11-28-10 28c-8 18-18 27-33 27-30 0-39 17-16 29 15 8 19 20 17 49-1 22-5 44-9 51-10 16-47 14-68-5-26-25-50-2-46 45 3 35 4 36 47 39 33 3 49-2 66-18 27-25 39-10 22 28-8 17-7 33 2 60 25 68 54 82 72 35zm-3776-129c13-20 14-28 5-40-10-11-9-15 4-20 23-9 21-13-30-69-25-27-64-72-87-99-101-119-147-158-147-126 0 6-7 10-15 10s-15-4-15-10c0-5 7-10 15-10 17 0 21-40 4-57-6-6-9-23-7-39 4-33 65-81 82-64 15 15 123 12 156-5 57-29 45-83-19-86-23-1-22-2 7-9 46-11 68-34 81-86 15-58-1-122-36-148-26-19-26-19-18 0 26 60 12 123-43 192l-18 23-24-26c-14-15-34-25-52-25-24 0-28 4-28 28 0 20-11 38-36 60-42 37-43 37-59 15-12-16-15-16-53 1-60 27-107 16-251-62-88-47-126-74-134-92-14-34-47-70-64-70-7 0-13-7-13-15s4-15 10-15c5 0 14-9 20-20 9-17 5-26-26-55-42-39-74-46-74-15 0 27-37 27-45 0-15-47 26-180 56-180 5 0 9-7 9-15 0-45-103 27-132 92-17 38-19 52-10 81 8 25 8 39-1 53-9 15-7 23 13 44 13 14 31 25 39 26 10 0 8 4-6 9-47 19-9 72 51 72 30 0 37 4 42 24 3 13 15 26 27 30 11 4 59 30 105 58s96 57 110 65l25 14-24 19c-59 47-68 51-84 38-13-10-19-10-33 3-11 10-22 13-32 7-8-5-21-5-29-2-20 9-100 7-124-3-10-4-23-2-31 4-11 9-16 4-23-26-5-23-15-39-26-41-21-4-53 25-66 61l-11 28-36-29c-55-45-74-80-74-135 0-62-19-59-39 7-12 39-13 55-2 94 17 63 44 90 95 95 35 3 38 5 18 12-15 5-21 13-18 22 3 8 6 18 6 23 0 4 18 15 41 24 39 16 43 16 83-4 23-11 48-20 56-20s33-9 56-20c36-18 58-20 160-18 119 3 119 3 122 28 2 20-10 36-59 78-33 28-67 52-74 52-8 0-19 16-27 36-12 33-14 35-49 29-46-8-54 4-37 51 10 30 10 37-2 44-29 19-109 11-156-15-49-27-50-26-29 15 31 59 133 91 181 55 25-19 50-19 58 0 8 21 84 20 108-2 20-18 24-63 7-80-14-14 46-107 102-155 85-74 163-79 239-15 52 44 198 209 252 283 36 50 58 55 83 18zm2376-11c13-21 28-42 35-48 6-5 24-28 40-50 49-70 198-212 239-229 35-15 42-15 87 0 51 17 139 93 158 136 5 13 15 31 22 40 10 13 9 22-2 43-12 23-12 29 2 53 14 22 25 28 62 30s48-1 58-17c16-26 30-26 53-1 20 23 82 27 118 9 32-17 77-61 77-76 0-17-4-17-50 7-45 23-118 26-145 6-18-13-17-25 7-58 19-27-5-48-48-41-27 4-34 2-34-10 0-9-21-28-47-44-60-35-133-108-133-133 0-27 31-33 163-29 99 4 116 7 142 27 19 15 37 21 51 18 13-4 26-1 29 5 25 39 106 25 130-21 14-27 13-29-5-32-33-5-25-23 8-20 44 5 71-13 93-61 22-50 24-90 5-125-8-15-17-35-20-45s-11-15-16-12c-6 4-8 15-5 26 18 55-15 121-81 167-28 19-33 20-38 6-3-9-6-23-6-32 0-10-9-23-21-30-18-11-24-11-40 4-10 9-19 23-19 31s-11 13-29 13c-17 0-32 4-35 9-7 10-86 9-103-2-7-4-21-4-30 1-10 5-27 6-38 1-11-4-33-8-50-9-27-1-93-45-83-55 15-16 152-100 194-120 28-13 59-36 68-50 11-17 25-25 45-25 35 0 55-22 47-52-4-16 1-28 15-38 11-9 20-25 19-35v-92l1-72-45-46c-32-31-54-45-73-45h-27l25 28c36 39 49 75 49 137 0 66-15 78-47 39-22-27-24-28-34-11-6 10-22 22-35 27-35 14-40 37-15 64 26 28 26 32 1 39-10 3-32 25-47 50s-39 52-53 59-40 23-58 35c-64 42-188 93-228 93-14 0-39-7-56-16-29-15-32-15-43 0-14 18-35 22-35 6 0-6-11-15-25-20-15-6-27-20-31-37-11-51-13-54-41-51-18 2-35 15-50 37-20 29-23 31-29 15-4-11-21-36-37-57-25-32-29-46-29-97 0-33-4-62-9-65-13-9-49 71-49 109 0 41 34 111 58 121 15 5 14 8-7 24-20 15-22 21-12 39 17 31 57 55 80 47 11-3 29 0 39 6 16 10 29 10 62 0 36-11 45-10 66 4 34 22 39 40 24 86-12 36-12 41 6 54 15 11 17 16 6 27-10 10-14 9-18-10-4-12-9-22-13-22-6 0-53 51-195 209-36 41-66 80-66 87s-6 14-12 17c-8 2-9 8-4 13s11 4 13-3c3-7 11-13 20-13 11 0 13 7 8 30-14 65 41 81 76 23zm-1897-289c5-17 1-35-10-53-34-53-100-90-74-41 5 10 10 33 10 50 0 20 9 40 25 56 29 28 40 26 49-12zm1390 17c19-20 48-119 40-133-8-13-62 33-78 66-16 34-11 86 9 86 6 0 20-9 29-19zm-2266-593c3-25 0-28-27-28-26 0-31 4-31 23 0 30 9 39 35 35 13-2 21-12 23-30zm3140 1c3-27-18-41-45-32-14 5-18 45-6 57 16 16 48 1 51-25zm-110-228c4-28-9-44-31-36-25 10-30 38-10 52 23 17 37 12 41-16zm-2932 4c8-20-13-45-32-38-8 3-14 16-14 29 0 17 6 24 20 24 11 0 23-7 26-15zm-127-23c30-25 35-35 39-87 4-46 7-55 16-43 6 8 21 20 34 27 19 10 25 8 47-13 28-28 42-73 27-88-7-7-5-19 6-39 24-41 5-56-30-24-37 34-53 35-53 5 0-19-5-25-22-25-29 0-36-10-18-25 8-7 15-18 15-24-1-14-46-66-58-66-4 0-21 14-37 30-25 26-28 33-17 50 17 28 15 39-7 33-24-6-36 13-21 32 21 26-19 18-57-11l-33-25v23c0 13 6 30 12 36 9 9 10 17 1 30-14 23 11 77 49 105 26 19 29 20 46 4 10-9 22-14 25-10 13 12 7 71-8 83-18 15-20 50-2 50 7 0 28-13 46-28zm3201 21c0-5-7-27-15-51-12-32-13-48-4-63 10-20 11-20 31-2s21 17 53-20c31-35 34-45 34-103 0-35-3-64-7-64-3 0-18 12-33 26-30 28-54 24-44-8 5-14 1-21-14-25-21-5-30-33-11-33s10-25-21-59l-31-33-29 33c-20 24-27 41-24 57 4 15 0 25-10 29-11 4-15 13-11 29 9 34-12 39-43 10-15-14-32-26-39-26-14 0-16 46-2 55 6 4 5 13-2 25-16 26-1 67 34 93 22 17 30 18 42 7 24-19 46-5 46 29 0 20 11 41 34 65 30 32 66 48 66 29zm-2428-380c14-16 40-55 58-88 19-33 55-81 81-106 47-45 140-99 172-99 35 0 25-20-19-39-95-42-215-19-286 56-41 43-79 121-94 192-12 57-12 68 1 88 21 31 56 29 87-4zm1704-22c-19-119-54-202-109-259-68-71-187-93-282-52-46 20-53 40-14 40 55 0 212 120 240 184 9 21 15 31 53 92 18 28 23 31 43 21 19-8 27-7 40 6 24 23 36 10 29-32zm-2021-52c14-43-45-66-61-24-8 19 13 45 37 45 10 0 21-10 24-21zm2293-11c2-19-2-28-18-33-37-12-64 27-38 53 21 21 53 10 56-20zm-1187-326c0-20 4-46 8-57 7-16 9-14 14 14 4 19 7 44 7 57 0 30 16 31 26 2 4-13 19-41 33-63 54-83 60-105 61-206 0-68-6-114-19-155-21-66-63-148-94-181-20-22-21-22-40-6-27 25-79 118-101 183-15 40-20 82-20 160 0 112 7 132 80 239 13 19 24 42 24 49 0 32 20-3 21-36zm-1223-20c58-54 64-77 30-116l-23-25-34 29c-32 27-34 34-36 95-2 36 0 65 4 65s30-22 59-48zm2482-25c0-64-3-76-24-96l-23-22-37 37c-20 20-36 38-36 41 0 8 104 112 113 113 4 0 7-33 7-73zm-510-267c0-21 5-42 10-45 18-11 10-50-15-78-31-32-45-34-52-7-3 11-8 20-12 20-3 1-17 10-30 21l-24 19 37 36c20 19 44 46 52 60 21 32 34 22 34-26zm-1407-35c67-65 78-94 26-62-17 9-23 9-26 0-2-7-14-24-25-38l-20-26-29 33c-20 24-26 40-22 58 7 30 31 90 36 90 2 0 29-25 60-55z"
       id="path5" />
    <path
       d="m3330 7280c-1-3-3-42-5-88-2-61 0-82 8-79 15 5 21 131 8 155-6 9-11 15-11 12z"
       id="path6" />
    <path
       d="m3303 7089c-7-7-13-21-13-31s-5-18-10-18c-6 0-14-8-17-17-7-19-17-32-45-64-10-10-18-23-18-28s-7-11-15-15c-8-3-15-14-15-24 0-11-7-25-15-32-16-14-21-50-6-50 5 0 14 12 20 28 13 32 26 54 64 103 15 20 27 41 27 47 0 5 7 12 15 16 8 3 15 11 15 17 0 7 7 17 16 23 9 7 14 22 12 35-2 18-5 20-15 10z"
       id="path7" />
    <path
       d="m3114 6776c-7-31 4-55 17-35 12 19 11 59-1 59-5 0-12-11-16-24z"
       id="path8" />
    <path
       d="m3093 6655c0-27 2-38 4-22 2 15 2 37 0 50-2 12-4 0-4-28z"
       id="path9" />
    <path
       d="m5612 7250c0-19 2-27 5-17 2 9 2 25 0 35-3 9-5 1-5-18z"
       id="path10" />
    <path
       d="m5605 7157c-5-25-4-42 4-50 18-18 24 0 14 45l-10 43-8-38z"
       id="path11" />
    <path
       d="m5630 7071c0-12 7-24 15-27 8-4 15-13 15-20 0-8 7-17 15-20 8-4 15-11 15-16 0-6 14-27 30-48 17-21 30-42 30-48 0-5 7-15 15-22s15-21 15-32c0-10 7-21 15-24 8-4 15-17 15-29 0-30 10-55 21-55 15 0 10 57-6 70-8 7-15 23-15 37 0 13-7 26-15 29-8 4-15 14-15 23s-13 31-29 48c-15 17-31 38-34 47-4 9-11 16-17 16-5 0-10 7-10 15 0 7-6 18-14 22s-15 17-17 27c-6 27-29 33-29 7z"
       id="path12" />
    <path
       d="m5841 6673c1-21 4-49 8-63 7-25 8-24 15 8 8 36-1 92-15 92-5 0-9-17-8-37z"
       id="path13" />
    <path
       d="m5853 6455c0-22 2-30 4-17 2 12 2 30 0 40-3 9-5-1-4-23z"
       id="path14" />
    <path
       d="m1672 7148c3-7 13-15 22-16 12-3 17 1 14 10-3 7-13 15-22 16-12 3-17-1-14-10z"
       id="path15" />
    <path
       d="m4e3 7330c-12-7-11-10 5-16 11-4 28-14 38-22 24-21 22-1-3 26-24 25-21 24-40 12z"
       id="path16" />
    <path
       d="m4856 7052c-10-17 4-56 15-45 6 6 6 19 1 33-6 15-11 19-16 12z"
       id="path17" />
    <path
       d="m4730 7044c0-3 10-28 22-54 21-46 24-48 55-43 24 4 39 1 53-12 24-22 50-14 43 14-3 14-17 22-44 26-25 4-54 20-77 41-35 32-52 41-52 28z"
       id="path18" />
    <path
       d="m4646 6941c-8-12 23-45 50-54 102-32 124-50 124-106 0-53-21-54-70-5-25 25-36 31-38 20-2-8 2-24 7-35 16-28 14-111-1-111-32 0-98 61-117 107-10 26-10 38 0 67 9 25 10 41 2 58-11 23-11 23-18-7-13-56-12-56-39-44-14 7-26 21-28 32s-9 22-15 25c-18 5-16-33 2-48 8-7 15-17 15-23 0-5 14-23 30-39 17-15 30-33 30-39 0-45 100-129 153-129 31 0 49 20 37 40-6 8-10 25-10 38 0 18 6 22 30 22 17 0 30-3 30-7 1-19 18-33 33-27 18 7 23 49 7 59-5 3-10 21-10 40 0 18-7 40-15 49-8 8-15 25-15 38s-6 33-14 44c-12 16-18 17-34 7-21-13-75 0-105 25-10 8-17 9-21 3z"
       id="path19" />
    <path
       d="m4498 6707c-12-29-10-63 3-50 6 6 9 23 7 39-2 24-4 26-10 11z"
       id="path20" />
    <path
       d="m4707 6584c-3-3 1-18 8-32 8-15 17-34 20-42 8-20 28-54 42-71 6-8 14-29 18-46 5-25 3-33-8-33-51 0-157 78-182 134-26 58-31 62-54 42-27-25-27-63-1-71 11-3 20-11 20-16 0-6 18-28 40-49 70-67 251-109 242-55-2 11-10 27-18 36-8 8-14 26-14 38 0 20 4 22 28 18 69-14 67-15 63 23-1 19-7 42-11 50-7 12-11 9-19-13l-11-27-37 20c-20 10-55 37-78 59s-45 38-48 35z"
       id="path21" />
    <path
       d="m3260 6144c0-9-7-28-16-44-17-27-16-34 9-75 16-27 91-95 105-95 6 0 12-4 14-8s22-18 46-30c40-21 45-21 72-7 36 19 38 33 5 41-16 4-30 0-40-10-9-9-21-16-26-16-15 0-10 17 6 24 22 8 18 25-7 35-29 11-102 80-111 104-4 9-11 17-17 17-17 0-11-29 11-51 17-17 19-23 8-30-17-10-29-2-29 21 0 10-7 20-15 24-20 7-19 33 1 44 12 7 15 17 9 41-7 32-25 43-25 15zm148-196c-6-18-28-21-28-4 0 9 7 16 16 16s14-5 12-12z"
       id="path22" />
    <path
       d="m3523 5876c-36-17-27-26 26-26 48 0 107 15 126 31 14 13-126 9-152-5z"
       id="path23" />
    <path
       d="m5666 6144c-3-9-6-26-6-39 0-12-7-25-15-29-8-3-15-12-15-19 0-8-19-31-42-50-40-34-42-37-24-50 15-11 16-16 6-22-8-5-18-2-25 9-11 15-45 13-45-3 1-13 52-42 63-36 36 18 57 34 90 66 20 20 37 41 37 46 0 6 7 16 15 23s15 20 15 30-7 20-15 24c-9 3-15 18-15 36 0 32-14 40-24 14zm24-84c0-11-7-20-15-20s-15 9-15 20 7 20 15 20 15-9 15-20zm-41-59c-15-5-22 6-14 19 6 9 10 9 16-1 5-8 4-15-2-18z"
       id="path24" />
    <path
       d="m5443 5923c-23-9-14-28 18-40 30-12 59-8 59 7 0 9-46 40-57 39-4 0-14-3-20-6z"
       id="path25" />
    <path
       d="m5276 5882c-8-13 63-32 118-32 40 0 47 3 44 18-3 14-16 17-80 20-42 2-79-1-82-6z"
       id="path26" />
    <path
       d="m1940 5166c-6-8-21-16-32-18-25-3-37-28-15-28 9 0 22 6 29 13 7 8 26 17 41 21 15 3 25 11 22 16-9 14-31 12-45-4z"
       id="path27" />
    <path
       d="m1831 5111c-8-5-9-11-3-15 13-8 42 3 42 15 0 11-21 11-39 0z"
       id="path28" />
    <path
       d="m1765 5079c-10-15 1-22 24-14 12 3 19 11 16 16-8 12-32 11-40-2z"
       id="path29" />
    <path
       d="m6962 5168c3-7 13-15 24-17 10-2 23-9 27-17s19-14 31-14c13 0 26-7 30-15 6-17 41-20 51-5 3 5-7 13-22 16-15 4-34 13-41 21-7 7-22 13-32 13s-20 7-24 15c-7 18-50 21-44 3z"
       id="path30" />
    <path
       d="m7012 5078c5-15 28-18 29-3 0 6-7 12-17 13-10 3-15-1-12-10z"
       id="path31" />
    <path
       d="m7140 5081c0-12 29-23 42-15 6 4 5 10-3 15-18 11-39 11-39 0z"
       id="path32" />
    <path
       d="m3296 4204c-9-23-7-54 3-54 11 0 21 25 21 51 0 23-15 25-24 3z"
       id="path33" />
    <path
       d="m3264 4106c-4-16-2-32 4-38 8-8 13-3 18 16 4 16 2 32-4 38-8 8-13 3-18-16z"
       id="path34" />
    <path
       d="m3237 4027c-3-7-2-19 3-26 5-9 9-8 14 5 4 9 3 21-2 26-6 6-12 4-15-5z"
       id="path35" />
    <path
       d="m5696 4041c-4-6-3-18 2-27 8-14 10-14 15-2 7 19-8 44-17 29z"
       id="path36" />
    <path
       d="m2785 3939c-4-6-5-13-2-16 7-7 27 6 27 18s-17 12-25-2z"
       id="path37" />
    <path
       d="m3902 3910c0-19 2-27 5-17 2 9 2 25 0 35-3 9-5 1-5-18z"
       id="path38" />
    <path
       d="m4466 2770c-10-94-5-162 12-168 14-4 16 120 3 198l-7 45-8-75z"
       id="path39" />
    <path
       d="m4435 2507c-4-36-4-62 2-68 15-15 23 37 14 86l-8 40-8-58z"
       id="path40" />
    <path
       d="m3693 2005c0-38 2-53 4-32 2 20 2 52 0 70-2 17-4 1-4-38z"
       id="path41" />
    <path
       d="m5253 1995c0-33 2-45 4-27s2 45 0 60-4 0-4-33z"
       id="path42" />
    <path
       d="m4377 1663c-4-3-7-17-7-30 0-33 24-24 28 10 3 26-7 35-21 20z"
       id="path43" />
    <path
       d="m4343 1575c-3-9-3-18 0-21 9-9 27 6 27 22 0 19-19 18-27-1z"
       id="path44" />
    <path
       d="m4584 1579c-3-6-1-16 5-22 8-8 11-5 11 11 0 24-5 28-16 11z"
       id="path45" />
    <path
       d="m2887 2772c-26-20-42-39-35-41 6-2 14 1 16 8 2 6 10 11 18 11 17 0 74 40 74 52 0 17-26 6-73-30z"
       id="path46" />
    <path
       d="m5636 3162c-3-6-1-14 5-17 15-10 25 3 12 16-7 7-13 7-17 1z"
       id="path47" />
    <path
       d="m5796 2972c6-4 14-16 18-26 5-15 9-17 19-7 9 10 8 15-7 27-11 8-25 14-30 14-8 0-8-3 0-8z"
       id="path48" />
    <path
       d="m6013 2763c9-9 19-14 23-11 10 10-6 28-24 28-15 0-15-1 1-17z"
       id="path49" />
    <path
       d="m6050 2741c0-14 18-23 31-15 8 4 7 9-2 15-18 11-29 11-29 0z"
       id="path50" />
    <path
       d="m7968 8255c-15-9-32-24-38-35-16-29-12-86 8-110l18-22 18 27c13 20 15 30 7 38-18 18-12 44 14 61 50 33 81 4 45-41-26-33-25-41 5-55 51-23 84 43 49 97-9 14-22 25-29 25s-15 4-17 9c-6 18-53 21-80 6z"
       id="path51" />
  </g>
</svg>
